<svg xmlns="http://www.w3.org/2000/svg" xmlns:xlink="http://www.w3.org/1999/xlink" width="177.51" height="57.534" viewBox="0 0 177.51 57.534">
  <defs>
    <clipPath id="clip-path">
      <rect width="177.51" height="57.534" fill="none"/>
    </clipPath>
  </defs>
  <g id="skoda-logo" clip-path="url(#clip-path)">
    <g id="skoda-logo-2" data-name="skoda-logo">
      <path id="Контур_303" data-name="Контур 303" d="M81.9,18.276h3.554a.728.728,0,0,1,.677.677l-.846,5.923a.948.948,0,0,1-1.015.846H74.625a1.072,1.072,0,0,0-1.015.846l-.169,1.015a.62.62,0,0,0,.677.677h4.907A4.994,4.994,0,0,1,84.1,34.013L83.086,41.12A6.521,6.521,0,0,1,76.825,46.7H63.964a.774.774,0,0,1-.677-.846l.846-6.092a.948.948,0,0,1,1.015-.846h9.815a1.072,1.072,0,0,0,1.015-.846l.169-1.523a.62.62,0,0,0-.677-.677H70.395a4.9,4.9,0,0,1-4.907-5.584l.846-6.6a6.694,6.694,0,0,1,6.43-5.753h1.185a.728.728,0,0,0,.677-.677v-.338L73.1,13.537V13.2a.728.728,0,0,1,.677-.677h2.877c.338,0,.508,0,.677.338l.338.677c.169.338.338.508.677.508.169,0,.508-.169.508-.338l.677-.677a.676.676,0,0,1,.677-.338h3.046a.728.728,0,0,1,.677.677.622.622,0,0,1-.169.508l-.338.338-2.2,2.877v.169a.591.591,0,0,1-.169.338.774.774,0,0,0,.846.677Zm27.244.677a.728.728,0,0,0-.677-.677h-6.092a.948.948,0,0,0-1.015.846l-.846,6.43a2.7,2.7,0,0,1-2.538,2.369H97.3a.728.728,0,0,1-.677-.677l1.015-8.122a.62.62,0,0,0-.677-.677H90.87a1.072,1.072,0,0,0-1.015.846L86.3,46.366a.728.728,0,0,0,.677.677H93.07a.948.948,0,0,0,1.015-.846l1.354-9.815a.948.948,0,0,1,1.015-.846H97.47A1.645,1.645,0,0,1,99.162,37.4l-1.185,8.969a.62.62,0,0,0,.677.677h5.923a.948.948,0,0,0,1.015-.846l1.185-8.8a9.658,9.658,0,0,0-.677-4.907h0a9.65,9.65,0,0,0,1.861-4.738l1.185-8.8Zm38.92-.677H136.728a1.072,1.072,0,0,0-1.015.846l-3.554,27.244a.62.62,0,0,0,.677.677H143.5a8.892,8.892,0,0,0,8.63-7.615l1.861-14.214c.508-3.892-2.031-6.938-5.923-6.938Zm-2.031,9.476-1.185,9.307a2.7,2.7,0,0,1-2.538,2.369h-.677a.728.728,0,0,1-.677-.677l1.523-11.845a.948.948,0,0,1,1.015-.846h1.015a1.346,1.346,0,0,1,1.523,1.692Zm26.229-9.476H164.48a6.561,6.561,0,0,0-6.43,5.753l-2.877,22.337a.62.62,0,0,0,.677.677h6.092a1.072,1.072,0,0,0,1.015-.846l.846-5.923a.948.948,0,0,1,1.015-.846h2.2a.728.728,0,0,1,.677.677l-.846,6.261a.62.62,0,0,0,.677.677h6.092a1.072,1.072,0,0,0,1.015-.846L177.51,23.86a5.351,5.351,0,0,0-5.246-5.584Zm-3.046,8.292-.846,6.6a.948.948,0,0,1-1.015.846h-2.2a.774.774,0,0,1-.677-.846l.846-6.6a.948.948,0,0,1,1.015-.846h2.2a1.124,1.124,0,0,1,.677.846Zm-42.643-8.292h-7.784a6.561,6.561,0,0,0-6.43,5.753l-2.369,17.429a4.814,4.814,0,0,0,4.907,5.584h7.784a6.868,6.868,0,0,0,6.6-5.753l2.369-17.429a5.118,5.118,0,0,0-5.077-5.584Zm-3.384,8.292-1.523,11.845a.948.948,0,0,1-1.015.846h-2.2a.728.728,0,0,1-.677-.677L119.3,26.567a.948.948,0,0,1,1.015-.846h2.2c.508.169.846.508.677.846ZM28.767,0A28.767,28.767,0,1,0,57.534,28.767,28.743,28.743,0,0,0,28.767,0Zm0,52.288A23.521,23.521,0,1,1,52.288,28.767,23.471,23.471,0,0,1,28.767,52.288ZM47.381,39.935a8.659,8.659,0,0,0-6.938-3.384H39.6a.449.449,0,0,0-.508.508V37.4a.846.846,0,1,1-1.692,0,1.7,1.7,0,0,1,.169-.508,24.314,24.314,0,0,0,2.2-10.492A25.4,25.4,0,0,0,32.659,8.8l-.508-.508A5.909,5.909,0,0,0,28.09,6.6h-.508A33.3,33.3,0,0,0,21.66,7.615h-.169a1.143,1.143,0,0,0-.677,1.015.879.879,0,0,0,.338.677l.169.169A32.621,32.621,0,0,1,26.4,14.045l.169.169a.622.622,0,0,1,.169.508.728.728,0,0,1-.677.677.622.622,0,0,1-.508-.169l-.169.169a33.385,33.385,0,0,0-5.753-5.077l-.677-.338a2.146,2.146,0,0,0-1.015-.169,2.146,2.146,0,0,0-1.015.169l-.169.169a21.44,21.44,0,0,0-5.077,4.569l-.338.338c0,.169-.169.338-.169.508a1.463,1.463,0,0,0,.508,1.015l.169.169a21.121,21.121,0,0,1,5.923,2.707l.169.169c.169.169.338.338.338.508a.728.728,0,0,1-.677.677H17.26a.166.166,0,0,1-.169-.169A24.744,24.744,0,0,0,11,17.937l-.677-.169A1.48,1.48,0,0,0,8.8,18.783l-.169.169a17.937,17.937,0,0,0-1.692,5.077v.508a1.157,1.157,0,0,0,1.185,1.185h.846A12.519,12.519,0,0,1,21.491,37.059v.508a1.157,1.157,0,0,1-1.185,1.185H19.8a3.041,3.041,0,0,1-1.523-.677l-.169-.169a5.888,5.888,0,0,0-2.538-1.185H8.8a.54.54,0,0,0-.508.508.622.622,0,0,0,.169.508h0a9.063,9.063,0,0,1,3.892,5.923h0a.449.449,0,0,0,.508.508h1.185a7.576,7.576,0,0,0,3.384-.677l1.523-.677a7.9,7.9,0,0,1,2.877-.508H38.243a.8.8,0,0,1,.846.846v.338c0,.169.169.508.338.508h1.015a8.346,8.346,0,0,0,6.938-3.554.524.524,0,0,1,.169-.338l-.169-.169Zm-15.23-3.384a3.215,3.215,0,1,1,3.215-3.215,3.328,3.328,0,0,1-3.215,3.215Z" fill="#006eb7"/>
    </g>
  </g>
</svg>
