<svg xmlns="http://www.w3.org/2000/svg" width="58.505" height="58.605" viewBox="0 0 58.505 58.605">
  <g id="Сгруппировать_251" data-name="Сгруппировать 251" transform="translate(-122.918 -5.435)">
    <g id="Сгруппировать_132" data-name="Сгруппировать 132" transform="translate(129.059 16.207)">
      <path id="Контур_154" data-name="Контур 154" d="M101.743,21.075a6.575,6.575,0,0,0-2.47-2.967,11.918,11.918,0,0,0-11.391-.345,6.608,6.608,0,0,0-3.35,4.614c-.67,3.082-.5,6.739,1.876,9.036a11.184,11.184,0,0,0,10.357,1.972,5.012,5.012,0,0,0,1.072-.364l.115-.038a7.284,7.284,0,0,0,2.967-2.24C102.739,28.082,102.854,24.081,101.743,21.075Zm-5.82,6.911a1.863,1.863,0,0,1-1.13,1.4,3.9,3.9,0,0,1-3.235-.191,2.9,2.9,0,0,1-.957-2.278,15.367,15.367,0,0,1,.268-4.978,2.432,2.432,0,0,1,2.3-1.264,2.936,2.936,0,0,1,2.489.919,4.393,4.393,0,0,1,.421,1.934A29.046,29.046,0,0,1,95.923,27.986Z" transform="translate(-55.792 -6.094)" fill="#0d55a3"/>
      <path id="Контур_155" data-name="Контур 155" d="M80.255,29.407c-.823-.057-1.723.019-2.508-.077l.019-8.519.057-.077,2.45-.019c.019-1.378.057-2.872-.019-4.116l-9.3-.019L69.42,16.6c-.019,1.283-.019,2.8,0,4.1.842.019,1.627,0,2.45.077v8.251l-.019.345-2.45.057c-.057,1.359-.057,2.661,0,4H80.275v-4.02Z" transform="translate(-69.357 -6.002)" fill="#0d55a3"/>
      <path id="Контур_156" data-name="Контур 156" d="M104.575,26.329a18.787,18.787,0,0,1-3.771,4.02c-.057.077-.191.038-.249-.019-.613-.383-1.283-.708-1.876-1.091a20.854,20.854,0,0,0,2.144-2.929h-.747a17.923,17.923,0,0,1-2.068,2.642,25.06,25.06,0,0,0-3.178-1.11l-.115-.1a12.684,12.684,0,0,0,.593-1.436h-.67l-.67,1.3a33.031,33.031,0,0,0-4.537-.574c-.077-.211.019-.536-.077-.727h-.632c-.057.287.077.517-.077.747a30.287,30.287,0,0,0-4.442.536l-.67-1.283a2.655,2.655,0,0,0-.689.019l.613,1.436-.077.077a31.182,31.182,0,0,0-3.255,1.149l-.1-.057a18.564,18.564,0,0,1-1.9-2.393c-.115-.421-.613-.172-.881-.23A21.5,21.5,0,0,0,79.42,29.3c-.67.383-1.321.823-2.029,1.149a18.045,18.045,0,0,1-3.905-4.1,3.587,3.587,0,0,0-.785,0,19.465,19.465,0,0,0,7.428,6.624.019.019,0,0,1,.019-.019c.019,0,.077.038.019.077a20.446,20.446,0,0,0,6.222,1.914,19.4,19.4,0,0,0,18.991-8.577A2.8,2.8,0,0,0,104.575,26.329ZM94.295,28.512l.077-.057a13.916,13.916,0,0,1,3.006,1.034,15.8,15.8,0,0,1-2.738,2.336c-.574.345-1.13.708-1.723,1l-1.053-.459.077-.172A27.249,27.249,0,0,0,94.295,28.512Zm-4.863-.727a19.226,19.226,0,0,1,4.116.479l.019.077a24.994,24.994,0,0,1-2.489,3.752,5.238,5.238,0,0,1-1.225-.153l-.421-.057C89.394,30.484,89.356,29.22,89.432,27.784Zm-4.767.44a20.991,20.991,0,0,1,4-.44l.019,4.1c-.517.115-1.091.115-1.589.249a20.767,20.767,0,0,1-2.565-3.81ZM80.7,29.546a16.513,16.513,0,0,1,3.006-1.072l.1.019a37.614,37.614,0,0,0,2.489,3.848c-.345.191-.766.306-1.11.517a16.857,16.857,0,0,1-4.5-3.255v-.057Zm3.178,4.135A17.577,17.577,0,0,1,78.1,30.962v-.077a14.158,14.158,0,0,1,1.819-1.015A25.047,25.047,0,0,0,84.359,33.3,1.566,1.566,0,0,1,83.88,33.681Zm9.151.325a19.114,19.114,0,0,1-8.136-.038c-.057-.115.115-.153.191-.211a7.745,7.745,0,0,1,8.117.115C93.28,34.006,93.089,33.949,93.031,34.006Zm2.374-.689-1.168.364A3.429,3.429,0,0,1,93.7,33.3l.057-.077a22.018,22.018,0,0,0,4.365-3.369,10.1,10.1,0,0,1,1.9,1.034A16.4,16.4,0,0,1,95.405,33.317Z" transform="translate(-66.301 2.876)" fill="#0d55a3"/>
      <path id="Контур_157" data-name="Контур 157" d="M73.464,19.776a23.137,23.137,0,0,1,1.991-2.393,11.785,11.785,0,0,1,1.934-1.627c.651.421,1.359.747,1.972,1.149a21.7,21.7,0,0,0-2.125,2.91,1.4,1.4,0,0,0,.747,0,17.738,17.738,0,0,1,2.068-2.584c1.053.383,2.106.8,3.178,1.091l.1.1-.613,1.4a2.2,2.2,0,0,0,.708,0c.23-.4.4-.861.632-1.283a24.5,24.5,0,0,0,4.461.536c.191.172.057.536.115.747h.67c.077-.23-.019-.517.077-.727a25.244,25.244,0,0,0,4.327-.555l.115.019.67,1.264c.23,0,.517.057.689-.057l-.613-1.4.057-.057a24.654,24.654,0,0,0,3.274-1.168,23.979,23.979,0,0,1,2.125,2.661,2.324,2.324,0,0,0,.747-.057,10.833,10.833,0,0,0-1.053-1.532,11.239,11.239,0,0,0-1.091-1.3V16.77l1.723-1,.249-.1a18.168,18.168,0,0,1,3.905,4.039c.287,0,.536.1.785-.019a19.568,19.568,0,0,0-14.645-8.577l-.019.038-.057-.038a10.541,10.541,0,0,0-2.2-.019,7.584,7.584,0,0,0-.919.019A19.337,19.337,0,0,0,72.66,19.776,2.269,2.269,0,0,0,73.464,19.776Zm10.242-2.125-.1.019a18.836,18.836,0,0,1-2.929-1l.038-.153a19.7,19.7,0,0,1,4.365-3.178c.364.153.747.268,1.11.44l-.077.191A29.584,29.584,0,0,0,83.706,17.651Zm4.9.651a8.675,8.675,0,0,1-1.991-.077,13.837,13.837,0,0,1-2.163-.383,20.632,20.632,0,0,1,2.565-3.791l1.57.211C88.665,15.506,88.607,16.961,88.607,18.3Zm.766.019c-.057-1.283-.019-2.719,0-4.059.5-.077,1.034-.153,1.532-.211a21.753,21.753,0,0,1,2.546,3.771A17.228,17.228,0,0,1,89.373,18.321Zm7.868-1.685a15.861,15.861,0,0,1-3.006,1.015,42.566,42.566,0,0,0-2.546-3.81c.345-.191.766-.345,1.13-.536A17.477,17.477,0,0,1,97.28,16.54Zm-3.159-4.154a17.67,17.67,0,0,1,5.8,2.719l-.057.1-1.7.938h-.115a21.654,21.654,0,0,0-4.384-3.35C93.661,12.731,93.91,12.6,94.083,12.482Zm-.976-.249v.057a7.507,7.507,0,0,1-7.887.268c-.134-.1-.364-.153-.4-.306A18.365,18.365,0,0,1,93.106,12.233ZM78.04,15.238a17.562,17.562,0,0,1,5.112-2.565c.077-.077.115-.153.23-.153v.057c.191.038.345-.172.517-.019a4.412,4.412,0,0,1,.44.345,25.293,25.293,0,0,0-4.422,3.408A8.1,8.1,0,0,1,78.04,15.3Z" transform="translate(-66.338 -11.055)" fill="#0d55a3"/>
      <path id="Контур_158" data-name="Контур 158" d="M86.033,29.659a6.543,6.543,0,0,1-6.509-1.589c-.191-.249-.325-.536-.517-.766l-3.331.019c-.057,1.972-.077,4.212,0,6.164l3.695-.019.057-1.168c.421.191.842.44,1.264.651a10.363,10.363,0,0,0,8.4,0,4.985,4.985,0,0,0,2.565-5.092,5.841,5.841,0,0,0-4.25-4.441l-5.973-1.723L81,21.484a.67.67,0,0,1-.268-.651c.459-.8,1.551-.555,2.374-.536a6.094,6.094,0,0,1,4.518,2.393c1.091,0,2.336.019,3.523-.019.057-1.991-.019-3.733-.057-5.743-1.11-.019-2.47-.019-3.58.019a5.963,5.963,0,0,1-.077,1L86.3,17.33c-2.718-1.13-6.509-1.264-8.979.517a4.888,4.888,0,0,0-1.685,5.092c.325,1.742,1.991,3.025,3.6,3.637,2.2.785,4.5,1.34,6.72,2.087.23.1.517.325.459.593C86.436,29.448,86.206,29.582,86.033,29.659Z" transform="translate(-63.745 -6.082)" fill="#0d55a3"/>
    </g>
    <g id="Сгруппировать_133" data-name="Сгруппировать 133" transform="translate(122.918 5.435)">
      <path id="Контур_159" data-name="Контур 159" d="M70.616,26.317l.115.268a.1.1,0,0,1-.057.134l-3.561,1.532a.1.1,0,0,1-.134-.057l-.115-.268a.1.1,0,0,1,.057-.134l3.561-1.532C70.52,26.26,70.6,26.26,70.616,26.317Z" transform="translate(-65.504 13.622)" fill="#0d55a3"/>
      <path id="Контур_160" data-name="Контур 160" d="M69.582,24.836l.077.249a.109.109,0,0,1-.077.134l-1.723.574c-.517.172-.632.4-.5.8a1.894,1.894,0,0,0,.44.632l2.2-.747a.109.109,0,0,1,.134.077l.077.249a.109.109,0,0,1-.077.134l-2.661.9a.1.1,0,0,1-.134-.057l-.1-.268a.109.109,0,0,1,.077-.134l.1-.038A1.517,1.517,0,0,1,66.9,26.6c-.211-.632.077-1.034.785-1.283l1.723-.574C69.506,24.759,69.563,24.778,69.582,24.836Z" transform="translate(-65.524 12.232)" fill="#0d55a3"/>
      <path id="Контур_161" data-name="Контур 161" d="M69.678,23.754c.038.1.077.249.115.345.115.5.038.766-.536.9l-1.876.44.057.536a.128.128,0,0,1-.077.134l-.153.038c-.057.019-.1-.019-.115-.077l-.115-.517-.517.134a.109.109,0,0,1-.134-.077l-.115-.268v-.019c-.019-.038.019-.1.077-.1l.574-.134-.134-.574a.109.109,0,0,1,.077-.134L67,24.348a.109.109,0,0,1,.134.077l.134.574,1.876-.44c.287-.077.325-.153.268-.364l-.077-.306c-.019-.077,0-.115.057-.134l.191-.038C69.6,23.659,69.639,23.678,69.678,23.754Z" transform="translate(-66.098 11.265)" fill="#0d55a3"/>
      <path id="Контур_162" data-name="Контур 162" d="M67.84,22.515l.249,1.819.077-.019c.651-.1.861-.383.785-.881a6.506,6.506,0,0,0-.191-.957v-.019c0-.038,0-.1.057-.1l.191-.019c.077-.019.115,0,.134.1a6.383,6.383,0,0,1,.23.957,1.16,1.16,0,0,1-1.13,1.417l-.5.057a1.219,1.219,0,1,1-.325-2.412l.287-.038C67.763,22.4,67.821,22.439,67.84,22.515Zm-.364.421c-.613.077-.823.345-.766.842.057.459.364.689.957.613h.057l-.191-1.436Z" transform="translate(-66.021 10.034)" fill="#0d55a3"/>
      <path id="Контур_163" data-name="Контур 163" d="M66.571,21.478a1.543,1.543,0,0,0,.268.747l2.3-.115a.107.107,0,0,1,.115.1l.019.268a.107.107,0,0,1-.1.115l-2.8.153a.107.107,0,0,1-.115-.1l-.019-.249a.107.107,0,0,1,.1-.115h.115a1.352,1.352,0,0,1-.306-.766c0-.077.019-.115.1-.115l.23-.019C66.533,21.363,66.552,21.4,66.571,21.478Z" transform="translate(-66.15 9.157)" fill="#0d55a3"/>
      <path id="Контур_164" data-name="Контур 164" d="M69.261,20.033l-.019.268a.1.1,0,0,1-.115.1l-1.8-.077c-.555-.019-.727.153-.747.574a1.4,1.4,0,0,0,.191.747l2.316.1a.124.124,0,0,1,.115.115l-.019.268a.107.107,0,0,1-.115.1l-2.8-.115a.124.124,0,0,1-.115-.115l.019-.268a.107.107,0,0,1,.115-.1h.1a1.62,1.62,0,0,1-.211-.881c.019-.651.44-.938,1.187-.9l1.8.077A.107.107,0,0,1,69.261,20.033Z" transform="translate(-66.141 7.749)" fill="#0d55a3"/>
      <path id="Контур_165" data-name="Контур 165" d="M69.506,18.731l-.038.249c0,.057-.057.1-.134.1l-.115-.019a1.756,1.756,0,0,1,.153.881.792.792,0,0,1-1.015.747l-.057-.019c-.593-.077-.823-.479-.689-1.436l.038-.383-.211-.038c-.459-.057-.632.057-.708.5a5.222,5.222,0,0,0-.077.842v.019c0,.057-.038.1-.1.077l-.191-.019c-.057,0-.077-.057-.077-.134a5.185,5.185,0,0,1,.057-.861.929.929,0,0,1,1.187-.9l1.9.287C69.468,18.616,69.506,18.674,69.506,18.731Zm-1.512.153-.057.4c-.1.651.019.861.4.919H68.4c.383.057.517-.115.574-.421a1.394,1.394,0,0,0-.115-.766Z" transform="translate(-66.022 6.352)" fill="#0d55a3"/>
      <path id="Контур_166" data-name="Контур 166" d="M70.033,17.838a2.393,2.393,0,0,1-.057.364c-.115.5-.306.689-.9.555l-1.876-.44-.191.5c-.019.057-.057.1-.115.077l-.115-.038c-.057-.019-.077-.057-.077-.134l.134-.517-.517-.134c-.057-.019-.1-.057-.077-.115l.019-.287v-.019a.093.093,0,0,1,.115-.057l.593.134.134-.574a.109.109,0,0,1,.134-.077l.191.038a.109.109,0,0,1,.077.134l-.134.574,1.876.44c.287.077.364,0,.4-.211l.077-.306c.019-.077.038-.115.1-.1l.191.038C70.014,17.723,70.033,17.762,70.033,17.838Z" transform="translate(-66.07 5.215)" fill="#0d55a3"/>
      <path id="Контур_167" data-name="Контур 167" d="M66.951,16.59l-.077.268a.109.109,0,0,1-.134.077l-.421-.134a.109.109,0,0,1-.077-.134l.077-.268a.109.109,0,0,1,.134-.077l.421.134A.109.109,0,0,1,66.951,16.59Zm3.35,1.034-.077.249a.109.109,0,0,1-.134.077l-2.68-.823a.109.109,0,0,1-.077-.134l.077-.249a.109.109,0,0,1,.134-.077l2.68.823A.109.109,0,0,1,70.3,17.624Z" transform="translate(-66.07 4.53)" fill="#0d55a3"/>
      <path id="Контур_168" data-name="Контур 168" d="M70.139,16.99a1.174,1.174,0,0,1-1.7.632l-.383-.153a1.23,1.23,0,1,1,.9-2.278l.383.153A1.184,1.184,0,0,1,70.139,16.99ZM68.78,15.65c-.517-.211-.938-.134-1.13.345s.057.823.574,1.034l.383.153c.517.211.938.134,1.13-.345s-.057-.823-.574-1.034Z" transform="translate(-65.238 3.383)" fill="#0d55a3"/>
      <path id="Контур_169" data-name="Контур 169" d="M71.346,14.8l-.134.23a.1.1,0,0,1-.153.038l-1.589-.861c-.5-.268-.727-.172-.919.191a1.861,1.861,0,0,0-.172.747l2.048,1.091a.115.115,0,0,1,.038.153l-.134.23a.1.1,0,0,1-.153.038l-2.45-1.3a.1.1,0,0,1-.038-.153l.134-.249a.1.1,0,0,1,.153-.038l.1.057a1.774,1.774,0,0,1,.191-.9c.306-.574.823-.651,1.455-.306l1.589.861A.184.184,0,0,1,71.346,14.8Z" transform="translate(-64.76 2.01)" fill="#0d55a3"/>
      <path id="Контур_170" data-name="Контур 170" d="M72.046,13.754l-.153.211a.1.1,0,0,1-.153.019l-.1-.057a1.607,1.607,0,0,1-.249.842.8.8,0,0,1-1.244.23l-.057-.038c-.5-.345-.536-.785.019-1.589l.23-.325-.191-.134c-.383-.268-.593-.211-.842.134a7.436,7.436,0,0,0-.44.708.019.019,0,0,1-.019.019.092.092,0,0,1-.134.038l-.153-.115c-.057-.038-.057-.077-.019-.153a4.562,4.562,0,0,1,.421-.747.926.926,0,0,1,1.455-.306l1.589,1.091A.113.113,0,0,1,72.046,13.754Zm-1.417-.517-.23.345c-.383.555-.345.785-.038,1l.057.038a.414.414,0,0,0,.689-.134,1.313,1.313,0,0,0,.23-.727Z" transform="translate(-63.986 0.819)" fill="#0d55a3"/>
      <path id="Контур_171" data-name="Контур 171" d="M72.388,13.814l-.172.23a.116.116,0,0,1-.153,0L69,11.593a.1.1,0,0,1-.019-.134l.172-.23a.1.1,0,0,1,.134-.019l3.063,2.45A.1.1,0,0,1,72.388,13.814Z" transform="translate(-63.581 -0.16)" fill="#0d55a3"/>
      <path id="Контур_172" data-name="Контур 172" d="M73.595,12.9c-.632.593-1.436.651-2.259-.249l-.479-.517c-.842-.9-.727-1.685-.1-2.278s1.436-.651,2.259.249l.479.517C74.341,11.525,74.226,12.31,73.595,12.9Zm-.957-2.45c-.632-.67-1.149-.67-1.589-.268s-.479.938.153,1.608l.479.517c.632.67,1.149.67,1.589.249.44-.4.479-.919-.153-1.589Z" transform="translate(-62.395 -1.776)" fill="#0d55a3"/>
      <path id="Контур_173" data-name="Контур 173" d="M73.031,9.19a1.3,1.3,0,0,0-.459.651l1.4,1.819a.119.119,0,0,1-.019.153l-.211.172a.119.119,0,0,1-.153-.019l-1.7-2.221a.1.1,0,0,1,.019-.153l.211-.153a.116.116,0,0,1,.153.019l.077.1a1.115,1.115,0,0,1,.459-.67.116.116,0,0,1,.153,0l.134.172A.112.112,0,0,1,73.031,9.19Z" transform="translate(-60.932 -2.294)" fill="#0d55a3"/>
      <path id="Контур_174" data-name="Контур 174" d="M74.664,8.3l-.134.153a.8.8,0,0,1,.459.383l.019.038c.325.517.191,1-.517,1.455a1.791,1.791,0,0,1-.593.249.206.206,0,0,0-.019.23c.057.077.115.1.23.057l.8-.268c.517-.172,1.053-.325,1.321.115l.019.038c.287.44.153.9-.593,1.4-.727.459-1.244.4-1.532-.057l-.019-.038a.853.853,0,0,1-.077-.766h-.038a.424.424,0,0,1-.44-.23h0a.487.487,0,0,1-.019-.459.819.819,0,0,1-.555-.4l-.019-.038c-.268-.421-.287-.957.5-1.474l1.015-.651a.125.125,0,0,1,.172.038l.077.115Q74.75,8.24,74.664,8.3Zm-.077.785c-.172-.268-.44-.421-.938-.1-.517.325-.479.632-.306.9l.019.019c.134.211.4.421.919.077.5-.325.5-.593.325-.861Zm1.244,1.876c-.115-.191-.306-.153-.8,0l-.613.191a.652.652,0,0,0,.077.613l.038.057c.172.249.421.325.938,0,.536-.345.555-.555.383-.823Z" transform="translate(-60.076 -3.067)" fill="#0d55a3"/>
      <path id="Контур_175" data-name="Контур 175" d="M77.12,9.936l-.23.115a.128.128,0,0,1-.153-.057l-.057-.115a1.671,1.671,0,0,1-.651.613.809.809,0,0,1-1.206-.4v-.057c-.268-.536-.077-.957.8-1.378l.364-.172-.1-.191c-.211-.421-.421-.479-.8-.287a5.576,5.576,0,0,0-.727.4c-.019,0-.019,0-.019.019a.087.087,0,0,1-.134-.038l-.077-.172c-.019-.057,0-.1.057-.153a6.5,6.5,0,0,1,.727-.44.917.917,0,0,1,1.417.459L77.177,9.8A.112.112,0,0,1,77.12,9.936Zm-.976-1.149-.364.172c-.593.287-.689.5-.517.861l.038.057c.172.364.383.364.67.23a1.629,1.629,0,0,0,.574-.517Z" transform="translate(-58.856 -3.576)" fill="#0d55a3"/>
      <path id="Контур_176" data-name="Контур 176" d="M78.587,9.472l-.249.1A.1.1,0,0,1,78.2,9.51l-.613-1.7c-.191-.517-.421-.613-.823-.479a1.887,1.887,0,0,0-.632.459l.785,2.182a.1.1,0,0,1-.057.134l-.249.1a.117.117,0,0,1-.134-.057L75.523,7.5a.1.1,0,0,1,.057-.134l.268-.1a.117.117,0,0,1,.134.057l.038.1a1.644,1.644,0,0,1,.727-.536c.613-.23,1.034.057,1.283.747l.613,1.7A.1.1,0,0,1,78.587,9.472Z" transform="translate(-57.585 -4.165)" fill="#0d55a3"/>
      <path id="Контур_177" data-name="Контур 177" d="M77.479,6.574l-.268.077a.109.109,0,0,1-.134-.077l-.115-.421c-.019-.057.019-.134.077-.134l.268-.077a.109.109,0,0,1,.134.077l.115.421A.109.109,0,0,1,77.479,6.574ZM78.4,9.963l-.249.077a.109.109,0,0,1-.134-.077l-.727-2.7a.109.109,0,0,1,.077-.134l.249-.077a.109.109,0,0,1,.134.077l.727,2.7A.109.109,0,0,1,78.4,9.963Z" transform="translate(-56.267 -4.962)" fill="#0d55a3"/>
      <path id="Контур_178" data-name="Контур 178" d="M80.253,9.144l-1.627.325c-.23.038-.364-.077-.383-.23l-.019-.1a.461.461,0,0,1,.057-.383l1.053-2.01c0-.019.019-.038.019-.057s-.019-.038-.057-.019l-1.321.249a.109.109,0,0,1-.134-.077L77.8,6.655a.109.109,0,0,1,.077-.134l1.589-.306c.23-.038.325.038.364.211l.019.134a.5.5,0,0,1-.057.325L78.721,8.933a.1.1,0,0,0-.019.057c0,.019.019.038.057.038L80.2,8.742a.109.109,0,0,1,.134.077l.038.191A.2.2,0,0,1,80.253,9.144Z" transform="translate(-55.499 -4.718)" fill="#0d55a3"/>
      <path id="Контур_179" data-name="Контур 179" d="M81.475,9.022l-.249.019a.107.107,0,0,1-.115-.1l-.019-.115a1.655,1.655,0,0,1-.823.345.8.8,0,0,1-.976-.8V8.314c-.057-.593.268-.919,1.244-1.015l.4-.038L80.92,7.05c-.038-.459-.211-.613-.651-.574-.364.038-.613.077-.842.115h-.019c-.057,0-.1,0-.1-.077l-.019-.191c0-.057.019-.1.1-.115a4.826,4.826,0,0,1,.842-.153.928.928,0,0,1,1.168.938l.172,1.914A.121.121,0,0,1,81.475,9.022Zm-.517-1.417-.4.038c-.67.057-.823.23-.785.613v.057c.038.4.23.479.555.459a1.454,1.454,0,0,0,.727-.287Z" transform="translate(-54.137 -4.864)" fill="#0d55a3"/>
      <path id="Контур_180" data-name="Контур 180" d="M82.39,9.355a2.345,2.345,0,0,1-.364.038c-.5,0-.747-.115-.766-.727l-.019-1.914L80.7,6.694a.121.121,0,0,1-.115-.1V6.445a.09.09,0,0,1,.1-.1h.536V5.813a.121.121,0,0,1,.1-.115L81.6,5.66h.019a.088.088,0,0,1,.077.1v.593h.593a.11.11,0,0,1,.115.115v.191a.124.124,0,0,1-.115.115L81.7,6.79,81.739,8.7c0,.306.077.345.306.345h.306c.077,0,.115.019.115.077v.191C82.485,9.3,82.447,9.336,82.39,9.355Z" transform="translate(-52.946 -5.216)" fill="#0d55a3"/>
      <path id="Контур_181" data-name="Контур 181" d="M82.206,9.605l-.268-.019a.1.1,0,0,1-.1-.115l.172-2.8a.1.1,0,0,1,.115-.1L82.4,6.6a.1.1,0,0,1,.1.115l-.172,2.8A.107.107,0,0,1,82.206,9.605Zm.211-3.5-.287-.019a.1.1,0,0,1-.1-.115l.019-.44a.1.1,0,0,1,.115-.1l.287.019a.107.107,0,0,1,.1.115l-.019.44A.1.1,0,0,1,82.416,6.1Z" transform="translate(-51.804 -5.428)" fill="#0d55a3"/>
      <path id="Контур_182" data-name="Контур 182" d="M83.524,9.21A1.173,1.173,0,0,1,82.49,7.717l.057-.421c.115-.8.593-1.283,1.4-1.168a1.173,1.173,0,0,1,1.034,1.493l-.057.421C84.807,8.847,84.328,9.325,83.524,9.21Zm.957-1.646c.077-.555-.1-.938-.613-1.015-.5-.057-.785.249-.862.8l-.057.421c-.077.555.1.938.613,1.015.5.057.785-.249.861-.8Z" transform="translate(-51.227 -4.803)" fill="#0d55a3"/>
      <path id="Контур_183" data-name="Контур 183" d="M86.038,9.778l-.249-.057a.109.109,0,0,1-.077-.134l.44-1.761c.134-.536,0-.747-.4-.861a1.736,1.736,0,0,0-.766.019l-.574,2.259a.109.109,0,0,1-.134.077l-.268-.057a.109.109,0,0,1-.077-.134l.689-2.719a.109.109,0,0,1,.134-.077l.268.077a.109.109,0,0,1,.077.134l-.019.1a1.6,1.6,0,0,1,.9-.038c.632.172.823.632.651,1.34L86.172,9.7A.109.109,0,0,1,86.038,9.778Z" transform="translate(-49.894 -4.606)" fill="#0d55a3"/>
      <path id="Контур_184" data-name="Контур 184" d="M88.626,7.211l-.249-.1c-.23-.1-.345-.057-.459.23l-.153.364.536.211a.1.1,0,0,1,.057.134l-.077.191a.082.082,0,0,1-.134.038l-.536-.23-.957,2.316a.105.105,0,0,1-.134.057l-.249-.1a.105.105,0,0,1-.057-.134l.957-2.316-.479-.268a.1.1,0,0,1-.057-.134l.057-.134a.1.1,0,0,1,.134-.057l.5.211.153-.364a.658.658,0,0,1,1-.421.822.822,0,0,1,.268.153q.086.057.057.115l-.077.172C88.721,7.23,88.683,7.23,88.626,7.211Z" transform="translate(-47.81 -4.336)" fill="#0d55a3"/>
      <path id="Контур_185" data-name="Контур 185" d="M87.72,10.519a1.18,1.18,0,0,1-.459-1.761l.191-.364a1.23,1.23,0,1,1,2.163,1.149l-.191.364A1.174,1.174,0,0,1,87.72,10.519Zm1.474-1.206c.268-.5.23-.919-.23-1.149s-.823-.038-1.072.479l-.191.364c-.268.5-.23.919.23,1.149s.823.038,1.091-.459Z" transform="translate(-47.038 -3.432)" fill="#0d55a3"/>
      <path id="Контур_186" data-name="Контур 186" d="M90.652,9.208A1.34,1.34,0,0,0,89.886,9l-1.244,1.934a.149.149,0,0,1-.153.038l-.23-.153a.116.116,0,0,1-.019-.153l1.512-2.355a.1.1,0,0,1,.153-.038l.211.134a.1.1,0,0,1,.019.153l-.038.1a1.2,1.2,0,0,1,.785.191A.1.1,0,0,1,90.92,9l-.115.191C90.767,9.246,90.729,9.246,90.652,9.208Z" transform="translate(-45.969 -2.848)" fill="#0d55a3"/>
      <path id="Контур_187" data-name="Контур 187" d="M90.2,12.478a4.835,4.835,0,0,1-.632-.651c-.057-.077-.057-.1-.019-.153l.153-.172a.093.093,0,0,1,.134,0l.019.019a6.681,6.681,0,0,0,.67.613c.5.44.8.345,1.053.057.172-.211.153-.421-.019-1l-.191-.593c-.172-.574-.191-.938.1-1.283.44-.5,1-.421,1.627.115.249.211.536.517.689.67a.093.093,0,0,1,0,.134l-.153.172c-.038.038-.077.038-.134,0h0c-.172-.172-.459-.44-.689-.651-.421-.364-.689-.44-.957-.134-.172.191-.134.44.019.9l.191.555c.23.708.211,1.072-.077,1.417C91.62,12.938,91.027,13.186,90.2,12.478Z" transform="translate(-44.774 -2.175)" fill="#0d55a3"/>
      <path id="Контур_188" data-name="Контур 188" d="M91.359,13.537a1.543,1.543,0,0,1-.268-.23c-.364-.364-.421-.632,0-1.053l1.378-1.34-.325-.421a.116.116,0,0,1,0-.153l.115-.1a.093.093,0,0,1,.134,0l.383.383.383-.383a.116.116,0,0,1,.153,0l.23.172.019.019c.038.038.038.077,0,.134l-.459.4.421.421a.116.116,0,0,1,0,.153l-.134.134a.116.116,0,0,1-.153,0l-.421-.421L91.435,12.6c-.211.211-.191.287-.038.459l.211.211c.057.057.057.1.019.134l-.134.134C91.474,13.575,91.416,13.575,91.359,13.537Z" transform="translate(-43.613 -1.051)" fill="#0d55a3"/>
      <path id="Контур_189" data-name="Контур 189" d="M92.425,14.535l-.153-.191a.1.1,0,0,1,.019-.153l.1-.077a1.794,1.794,0,0,1-.747-.479.809.809,0,0,1,.115-1.264l.057-.038c.459-.383.919-.287,1.532.459l.249.306.172-.134c.364-.287.383-.517.115-.842-.23-.268-.4-.459-.574-.632a.019.019,0,0,0-.019-.019.08.08,0,0,1,0-.134l.153-.115c.038-.038.1-.038.153.019a4.608,4.608,0,0,1,.593.613.942.942,0,0,1-.115,1.493l-1.493,1.206A.144.144,0,0,1,92.425,14.535Zm.9-1.225L93.076,13c-.421-.517-.651-.555-.938-.306l-.077.038a.434.434,0,0,0-.077.708,1.559,1.559,0,0,0,.632.44Z" transform="translate(-43.071 -0.154)" fill="#0d55a3"/>
      <path id="Контур_190" data-name="Контур 190" d="M93.319,15.846l-.134-.23a.1.1,0,0,1,.038-.153l1.512-.976c.459-.306.5-.555.287-.9a1.641,1.641,0,0,0-.574-.5L92.5,14.353a.106.106,0,0,1-.153-.038l-.153-.23a.106.106,0,0,1,.038-.153L94.583,12.4a.116.116,0,0,1,.153.019l.153.23a.1.1,0,0,1-.038.153l-.1.057a1.612,1.612,0,0,1,.689.593c.364.555.172,1.034-.44,1.417l-1.512.976C93.415,15.9,93.338,15.9,93.319,15.846Z" transform="translate(-42.357 0.928)" fill="#0d55a3"/>
      <path id="Контур_191" data-name="Контур 191" d="M93.8,16.888a4.987,4.987,0,0,1-.536-.861c-.364-.727-.057-1.3.689-1.685l.364-.172a1.144,1.144,0,0,1,1.742.479,3.5,3.5,0,0,1,.23.593l.919-.459a.11.11,0,0,1,.134.038l.134.249a.105.105,0,0,1-.057.134l-3.446,1.723C93.895,16.965,93.857,16.965,93.8,16.888Zm2.106-1.474a5.509,5.509,0,0,0-.249-.593c-.249-.479-.613-.5-1.149-.23l-.345.172c-.536.268-.766.574-.517,1.053a5.157,5.157,0,0,0,.306.555Z" transform="translate(-41.497 2.375)" fill="#0d55a3"/>
      <path id="Контур_192" data-name="Контур 192" d="M94.225,18.141l-.1-.23a.1.1,0,0,1,.057-.134l.115-.038a1.774,1.774,0,0,1-.555-.689.807.807,0,0,1,.517-1.149l.057-.019c.555-.211.957.019,1.3.938l.134.383.211-.077c.44-.153.536-.364.383-.766-.134-.345-.23-.574-.325-.766,0-.019,0-.019-.019-.019a.075.075,0,0,1,.057-.115l.172-.057c.057-.019.1,0,.134.077a4.874,4.874,0,0,1,.364.766.921.921,0,0,1-.593,1.359l-1.8.67C94.32,18.218,94.244,18.179,94.225,18.141Zm1.244-.861-.134-.383c-.23-.632-.44-.727-.8-.593l-.057.019c-.364.134-.4.345-.287.651a1.523,1.523,0,0,0,.459.613Z" transform="translate(-40.984 3.687)" fill="#0d55a3"/>
      <path id="Контур_193" data-name="Контур 193" d="M96.935,18.055a1.514,1.514,0,0,0-.421-.67L94.293,18a.109.109,0,0,1-.134-.077l-.077-.268a.109.109,0,0,1,.077-.134l2.7-.747a.109.109,0,0,1,.134.077l.077.249a.109.109,0,0,1-.077.134l-.115.038a1.327,1.327,0,0,1,.459.67c.019.077,0,.115-.057.134l-.211.057C96.992,18.151,96.954,18.132,96.935,18.055Z" transform="translate(-40.612 4.941)" fill="#0d55a3"/>
      <path id="Контур_194" data-name="Контур 194" d="M94.662,20.277a4.64,4.64,0,0,1-.268-.976c-.153-.8.306-1.283,1.11-1.436l.383-.077c.842-.153,1.4.153,1.551.938a5.877,5.877,0,0,1,.057.651l1.015-.191a.084.084,0,0,1,.115.077l.057.268c.019.057-.019.1-.077.115l-3.791.708C94.739,20.373,94.7,20.373,94.662,20.277Zm2.431-.823a6.337,6.337,0,0,0-.077-.632c-.1-.536-.459-.651-1.034-.536l-.4.057c-.593.115-.881.345-.785.881.038.191.1.44.153.632Z" transform="translate(-40.349 5.84)" fill="#0d55a3"/>
      <path id="Контур_195" data-name="Контур 195" d="M94.559,20.045l-.019-.268a.107.107,0,0,1,.1-.115l2.8-.287a.107.107,0,0,1,.115.1l.019.268a.107.107,0,0,1-.1.115l-2.8.287C94.636,20.16,94.578,20.121,94.559,20.045Zm3.5-.345-.038-.287a.107.107,0,0,1,.1-.115l.44-.038a.107.107,0,0,1,.115.1l.019.287a.107.107,0,0,1-.1.115l-.44.038A.1.1,0,0,1,98.063,19.7Z" transform="translate(-40.189 7.22)" fill="#0d55a3"/>
      <path id="Контур_196" data-name="Контур 196" d="M94.657,22.049,94.6,20.384c0-.23.134-.345.287-.345h.1a.518.518,0,0,1,.364.115l1.819,1.359a.07.07,0,0,0,.057.019c.019,0,.038-.019.038-.057l-.038-1.34a.11.11,0,0,1,.115-.115h.191a.107.107,0,0,1,.115.1l.057,1.627c0,.23-.1.306-.268.306H97.3a.509.509,0,0,1-.306-.115l-1.857-1.4a.07.07,0,0,0-.057-.019c-.019,0-.038,0-.038.038l.038,1.455a.11.11,0,0,1-.115.115h-.191C94.7,22.164,94.657,22.107,94.657,22.049Z" transform="translate(-40.134 7.915)" fill="#0d55a3"/>
      <path id="Контур_197" data-name="Контур 197" d="M94.55,23.43l.019-.249a.1.1,0,0,1,.115-.1H94.8a1.69,1.69,0,0,1-.211-.861.821.821,0,0,1,.957-.842H95.6c.593.038.861.4.8,1.378l-.019.4.211.019c.459.038.632-.115.67-.536.019-.364.019-.613.019-.842v-.019c0-.057.019-.1.1-.1l.191.019c.057,0,.1.038.1.134a5.845,5.845,0,0,1,.019.861.931.931,0,0,1-1.11,1l-1.914-.134A.14.14,0,0,1,94.55,23.43Zm1.493-.268.019-.4c.038-.67-.1-.842-.479-.881h-.057c-.4-.019-.517.153-.536.479a1.476,1.476,0,0,0,.172.766Z" transform="translate(-40.18 9.158)" fill="#0d55a3"/>
      <path id="Контур_198" data-name="Контур 198" d="M94.38,24.162a2.348,2.348,0,0,1,.038-.364c.077-.5.249-.727.842-.632l1.9.306.153-.517a.121.121,0,0,1,.115-.1l.153.019a.084.084,0,0,1,.077.115l-.077.536.536.077a.107.107,0,0,1,.1.115v.306c0,.038-.057.077-.115.057l-.613-.077-.1.593a.128.128,0,0,1-.134.1l-.191-.038c-.057,0-.1-.057-.1-.134l.1-.593-1.9-.306c-.306-.038-.364.019-.383.249l-.038.306c-.019.077-.038.115-.1.1l-.191-.038C94.418,24.258,94.38,24.219,94.38,24.162Z" transform="translate(-40.335 10.512)" fill="#0d55a3"/>
      <path id="Контур_199" data-name="Контур 199" d="M94.28,24.178l.057-.249a.109.109,0,0,1,.134-.077l2.738.613a.109.109,0,0,1,.077.134l-.057.249a.109.109,0,0,1-.134.077l-2.738-.613A.161.161,0,0,1,94.28,24.178Zm3.427.766.057-.268A.109.109,0,0,1,97.9,24.6l.421.1a.109.109,0,0,1,.077.134l-.057.268a.109.109,0,0,1-.134.077l-.421-.1C97.745,25.078,97.707,25,97.707,24.944Z" transform="translate(-40.427 11.415)" fill="#0d55a3"/>
      <path id="Контур_200" data-name="Контур 200" d="M94.042,25.38a1.168,1.168,0,0,1,1.646-.766l.4.115a1.159,1.159,0,0,1,.919,1.551,1.188,1.188,0,0,1-1.646.785l-.4-.115A1.194,1.194,0,0,1,94.042,25.38ZM95.5,26.605c.536.172.938.057,1.091-.44s-.115-.8-.67-.976l-.4-.115c-.536-.172-.938-.057-1.091.44s.115.8.651.976Z" transform="translate(-40.705 12.032)" fill="#0d55a3"/>
      <path id="Контур_201" data-name="Контур 201" d="M93.293,27.834l.115-.249a.121.121,0,0,1,.153-.057l1.666.727c.517.23.747.115.9-.268a1.625,1.625,0,0,0,.1-.766L94.1,26.3a.121.121,0,0,1-.057-.153l.115-.249a.121.121,0,0,1,.153-.057l2.565,1.13a.1.1,0,0,1,.057.134l-.115.249a.1.1,0,0,1-.134.057l-.1-.038a1.572,1.572,0,0,1-.115.9c-.268.613-.766.708-1.436.421l-1.666-.727C93.293,27.968,93.274,27.892,93.293,27.834Z" transform="translate(-41.335 13.234)" fill="#0d55a3"/>
    </g>
    <g id="Сгруппировать_134" data-name="Сгруппировать 134" transform="translate(133.543 58.699)">
      <path id="Контур_202" data-name="Контур 202" d="M73.978,38.486h-1V34.715a3.635,3.635,0,0,1-1.283.766v-.9a2.741,2.741,0,0,0,.842-.479,1.793,1.793,0,0,0,.632-.842h.8v5.226Z" transform="translate(-71.7 -33.241)" fill="#0d55a3"/>
      <path id="Контур_203" data-name="Контур 203" d="M75.705,38.5V37.443H73.58v-.881l2.259-3.312h.842v3.312h.651v.881h-.651V38.5Zm0-1.914V34.8L74.5,36.581Z" transform="translate(-69.981 -33.25)" fill="#0d55a3"/>
      <path id="Контур_204" data-name="Контур 204" d="M77.465,33.26a1.43,1.43,0,0,1,1.187.536,3.391,3.391,0,0,1,.517,2.125,3.428,3.428,0,0,1-.517,2.125,1.406,1.406,0,0,1-1.187.536,1.471,1.471,0,0,1-1.225-.593A3.5,3.5,0,0,1,75.78,35.9a3.466,3.466,0,0,1,.517-2.125A1.407,1.407,0,0,1,77.465,33.26Zm0,.823a.52.52,0,0,0-.325.115.785.785,0,0,0-.23.421,5.3,5.3,0,0,0-.1,1.3,5.917,5.917,0,0,0,.1,1.264.85.85,0,0,0,.23.459.483.483,0,0,0,.325.115.52.52,0,0,0,.325-.115.785.785,0,0,0,.23-.421,6.5,6.5,0,0,0,.1-1.3,5.917,5.917,0,0,0-.1-1.264.85.85,0,0,0-.23-.459A.483.483,0,0,0,77.465,34.083Z" transform="translate(-67.969 -33.241)" fill="#0d55a3"/>
      <path id="Контур_205" data-name="Контур 205" d="M79.585,33.26a1.43,1.43,0,0,1,1.187.536,3.39,3.39,0,0,1,.517,2.125,3.428,3.428,0,0,1-.517,2.125,1.406,1.406,0,0,1-1.187.536,1.471,1.471,0,0,1-1.225-.593A3.5,3.5,0,0,1,77.9,35.9a3.466,3.466,0,0,1,.517-2.125A1.382,1.382,0,0,1,79.585,33.26Zm0,.823a.52.52,0,0,0-.325.115.785.785,0,0,0-.23.421,5.3,5.3,0,0,0-.1,1.3,5.917,5.917,0,0,0,.1,1.264.85.85,0,0,0,.23.459.483.483,0,0,0,.325.115.52.52,0,0,0,.325-.115.785.785,0,0,0,.23-.421,5.3,5.3,0,0,0,.1-1.3,5.918,5.918,0,0,0-.1-1.264.85.85,0,0,0-.23-.459A.52.52,0,0,0,79.585,34.083Z" transform="translate(-66.03 -33.241)" fill="#0d55a3"/>
      <path id="Контур_206" data-name="Контур 206" d="M82.438,38.486h-1V34.715a3.636,3.636,0,0,1-1.283.766v-.9A2.741,2.741,0,0,0,81,34.1a1.793,1.793,0,0,0,.632-.842h.8Z" transform="translate(-63.964 -33.241)" fill="#0d55a3"/>
      <path id="Контур_207" data-name="Контур 207" d="M82.34,35.016v-1h1v1Zm0,2.776v-1h1v1Z" transform="translate(-61.97 -32.546)" fill="#0d55a3"/>
      <path id="Контур_208" data-name="Контур 208" d="M86.823,37.567v.919h-3.5a2.381,2.381,0,0,1,.345-1,6.433,6.433,0,0,1,1.13-1.244,5.622,5.622,0,0,0,.823-.861,1.125,1.125,0,0,0,.211-.613.7.7,0,0,0-.172-.517.684.684,0,0,0-.5-.172.623.623,0,0,0-.5.191,1.023,1.023,0,0,0-.211.632l-1-.1a1.663,1.663,0,0,1,.555-1.187,1.811,1.811,0,0,1,1.168-.364,1.626,1.626,0,0,1,1.206.421,1.359,1.359,0,0,1,.44,1.034,1.613,1.613,0,0,1-.134.67,2.3,2.3,0,0,1-.4.67,6.4,6.4,0,0,1-.651.67c-.306.287-.517.479-.593.574s-.153.191-.211.268h1.991Z" transform="translate(-61.074 -33.241)" fill="#0d55a3"/>
      <path id="Контур_209" data-name="Контур 209" d="M87.195,33.26a1.43,1.43,0,0,1,1.187.536,3.39,3.39,0,0,1,.517,2.125,3.428,3.428,0,0,1-.517,2.125,1.406,1.406,0,0,1-1.187.536,1.471,1.471,0,0,1-1.225-.593A3.5,3.5,0,0,1,85.51,35.9a3.466,3.466,0,0,1,.517-2.125A1.382,1.382,0,0,1,87.195,33.26Zm0,.823a.52.52,0,0,0-.325.115.785.785,0,0,0-.23.421,5.3,5.3,0,0,0-.1,1.3,5.916,5.916,0,0,0,.1,1.264.85.85,0,0,0,.23.459.483.483,0,0,0,.325.115.52.52,0,0,0,.325-.115.785.785,0,0,0,.23-.421,5.3,5.3,0,0,0,.1-1.3,5.915,5.915,0,0,0-.1-1.264.85.85,0,0,0-.23-.459A.52.52,0,0,0,87.195,34.083Z" transform="translate(-59.072 -33.241)" fill="#0d55a3"/>
      <path id="Контур_210" data-name="Контур 210" d="M90.048,38.486h-1V34.715a3.635,3.635,0,0,1-1.283.766v-.9a2.741,2.741,0,0,0,.842-.479,1.793,1.793,0,0,0,.632-.842h.8v5.226Z" transform="translate(-57.005 -33.241)" fill="#0d55a3"/>
      <path id="Контур_211" data-name="Контур 211" d="M89.74,37.11l1-.1a.831.831,0,0,0,.249.536.665.665,0,0,0,.479.191A.679.679,0,0,0,92,37.493a1.109,1.109,0,0,0,.211-.766A1.136,1.136,0,0,0,92,36a.723.723,0,0,0-.555-.249,1.028,1.028,0,0,0-.766.383l-.8-.115.517-2.718h2.642v.938H91.157L91,35.119a1.471,1.471,0,0,1,.689-.172,1.491,1.491,0,0,1,1.13.479,1.769,1.769,0,0,1,.459,1.264,1.907,1.907,0,0,1-.364,1.149,1.659,1.659,0,0,1-1.417.689,1.749,1.749,0,0,1-1.168-.383A1.44,1.44,0,0,1,89.74,37.11Z" transform="translate(-55.204 -33.204)" fill="#0d55a3"/>
    </g>
  </g>
</svg>
