<svg xmlns="http://www.w3.org/2000/svg" width="104.222" height="58.62" viewBox="0 0 104.222 58.62">
  <g id="Сгруппировать_252" data-name="Сгруппировать 252" transform="translate(-4.07 -5.42)">
    <g id="Сгруппировать_250" data-name="Сгруппировать 250">
      <g id="Сгруппировать_128" data-name="Сгруппировать 128" transform="translate(55.927 16.207)">
        <path id="Контур_88" data-name="Контур 88" d="M63.543,21.075a6.575,6.575,0,0,0-2.47-2.967,11.918,11.918,0,0,0-11.391-.345,6.608,6.608,0,0,0-3.35,4.614c-.67,3.082-.5,6.739,1.876,9.036a11.184,11.184,0,0,0,10.357,1.972,5.012,5.012,0,0,0,1.072-.364l.115-.038a7.284,7.284,0,0,0,2.967-2.24C64.539,28.082,64.654,24.081,63.543,21.075Zm-5.82,6.911a1.863,1.863,0,0,1-1.13,1.4,3.9,3.9,0,0,1-3.235-.191,2.9,2.9,0,0,1-.957-2.278,15.367,15.367,0,0,1,.268-4.978,2.432,2.432,0,0,1,2.3-1.264,2.936,2.936,0,0,1,2.489.919,4.393,4.393,0,0,1,.421,1.934A31.688,31.688,0,0,1,57.723,27.986Z" transform="translate(-17.592 -6.094)" fill="#0d55a3"/>
        <path id="Контур_89" data-name="Контур 89" d="M42.055,29.407c-.823-.057-1.723.019-2.508-.077l.019-8.519.057-.077,2.45-.019c.019-1.378.057-2.872-.019-4.116l-9.3-.019L31.22,16.6c-.019,1.283-.019,2.8,0,4.1.842.019,1.627,0,2.45.077v8.251l-.019.345-2.45.057c-.057,1.359-.057,2.661,0,4H42.075v-4.02Z" transform="translate(-31.157 -6.002)" fill="#0d55a3"/>
        <path id="Контур_90" data-name="Контур 90" d="M66.385,26.329a18.787,18.787,0,0,1-3.771,4.02c-.057.077-.191.038-.249-.019-.613-.383-1.283-.708-1.876-1.091a20.853,20.853,0,0,0,2.144-2.929h-.766A17.922,17.922,0,0,1,59.8,28.952a25.06,25.06,0,0,0-3.178-1.11l-.115-.1A12.687,12.687,0,0,0,57.1,26.31h-.67l-.67,1.3a33.031,33.031,0,0,0-4.537-.574c-.077-.211.019-.536-.077-.727h-.632c-.057.287.077.517-.077.747A30.287,30.287,0,0,0,46,27.593l-.67-1.283a2.655,2.655,0,0,0-.689.019l.613,1.436-.077.077a31.182,31.182,0,0,0-3.255,1.149l-.1-.057a18.563,18.563,0,0,1-1.9-2.393c-.115-.421-.613-.172-.881-.23A21.5,21.5,0,0,0,41.21,29.3c-.67.383-1.321.823-2.029,1.149a18.046,18.046,0,0,1-3.905-4.1,3.587,3.587,0,0,0-.785,0,19.465,19.465,0,0,0,7.428,6.624.019.019,0,0,1,.019-.019c.019,0,.077.038.019.077a20.445,20.445,0,0,0,6.222,1.914,19.4,19.4,0,0,0,18.991-8.577A2.639,2.639,0,0,0,66.385,26.329ZM56.1,28.512l.077-.057a13.916,13.916,0,0,1,3.006,1.034,15.8,15.8,0,0,1-2.738,2.336c-.574.345-1.13.708-1.723,1l-1.053-.459.077-.172A27.249,27.249,0,0,0,56.1,28.512Zm-4.863-.727a19.227,19.227,0,0,1,4.116.479l.019.077a25,25,0,0,1-2.489,3.752,5.238,5.238,0,0,1-1.225-.153l-.421-.057C51.2,30.484,51.165,29.22,51.241,27.784Zm-4.767.44a20.991,20.991,0,0,1,4-.44l.019,4.1c-.517.115-1.091.115-1.589.249a20.767,20.767,0,0,1-2.565-3.81Zm-3.963,1.321a16.513,16.513,0,0,1,3.006-1.072l.1.019A37.616,37.616,0,0,0,48.1,32.341c-.345.191-.766.306-1.11.517a16.856,16.856,0,0,1-4.5-3.255v-.057Zm3.178,4.135a17.577,17.577,0,0,1-5.782-2.719v-.077a14.159,14.159,0,0,1,1.819-1.015A25.047,25.047,0,0,0,46.168,33.3,1.566,1.566,0,0,1,45.689,33.681Zm9.151.325a19.114,19.114,0,0,1-8.136-.038c-.057-.115.115-.153.191-.211a7.745,7.745,0,0,1,8.117.115C55.089,34.006,54.9,33.949,54.84,34.006Zm2.374-.689-1.168.364a3.429,3.429,0,0,1-.536-.383l.057-.077a22.017,22.017,0,0,0,4.365-3.369,10.1,10.1,0,0,1,1.9,1.034A16.4,16.4,0,0,1,57.214,33.317Z" transform="translate(-28.11 2.876)" fill="#0d55a3"/>
        <path id="Контур_91" data-name="Контур 91" d="M35.264,19.776a23.139,23.139,0,0,1,1.991-2.393,11.785,11.785,0,0,1,1.934-1.627c.651.421,1.359.747,1.972,1.149a21.7,21.7,0,0,0-2.125,2.91,1.4,1.4,0,0,0,.747,0,17.738,17.738,0,0,1,2.068-2.584c1.053.383,2.106.8,3.178,1.091l.1.1-.613,1.4a2.2,2.2,0,0,0,.708,0c.23-.4.4-.861.632-1.283a24.5,24.5,0,0,0,4.461.536c.191.172.057.536.115.747h.67c.077-.23-.019-.517.077-.727a25.244,25.244,0,0,0,4.327-.555l.115.019.67,1.264c.23,0,.517.057.689-.057l-.613-1.4.057-.057a24.653,24.653,0,0,0,3.274-1.168,23.975,23.975,0,0,1,2.125,2.661,2.324,2.324,0,0,0,.747-.057,10.833,10.833,0,0,0-1.053-1.532,11.239,11.239,0,0,0-1.091-1.3V16.77l1.723-1,.249-.1A18.168,18.168,0,0,1,66.3,19.718c.287,0,.536.1.785-.019a19.568,19.568,0,0,0-14.645-8.577l-.019.038-.057-.038a10.541,10.541,0,0,0-2.2-.019,7.583,7.583,0,0,0-.919.019A19.337,19.337,0,0,0,34.46,19.776,2.269,2.269,0,0,0,35.264,19.776Zm10.242-2.125-.1.019a18.836,18.836,0,0,1-2.929-1l.038-.153a19.7,19.7,0,0,1,4.365-3.178c.364.153.747.268,1.11.44l-.077.191A29.584,29.584,0,0,0,45.506,17.651Zm4.9.651a8.675,8.675,0,0,1-1.991-.077,13.838,13.838,0,0,1-2.163-.383,20.631,20.631,0,0,1,2.565-3.791l1.57.211C50.465,15.506,50.407,16.961,50.407,18.3Zm.766.019c-.057-1.283-.019-2.719,0-4.059.5-.077,1.034-.153,1.532-.211a21.752,21.752,0,0,1,2.546,3.771A17.228,17.228,0,0,1,51.173,18.321Zm7.868-1.685a15.862,15.862,0,0,1-3.006,1.015,42.565,42.565,0,0,0-2.546-3.81c.345-.191.766-.345,1.13-.536A17.477,17.477,0,0,1,59.08,16.54Zm-3.159-4.154a17.67,17.67,0,0,1,5.8,2.719l-.057.1-1.7.938h-.115a21.654,21.654,0,0,0-4.384-3.35C55.461,12.731,55.71,12.6,55.883,12.482Zm-.976-.249v.057a7.507,7.507,0,0,1-7.887.268c-.134-.1-.364-.153-.4-.306A18.365,18.365,0,0,1,54.906,12.233ZM39.84,15.238a17.562,17.562,0,0,1,5.112-2.565c.077-.077.115-.153.23-.153v.057c.191.038.345-.172.517-.019a4.412,4.412,0,0,1,.44.345,25.293,25.293,0,0,0-4.422,3.408A8.1,8.1,0,0,1,39.84,15.3Z" transform="translate(-28.138 -11.055)" fill="#0d55a3"/>
        <path id="Контур_92" data-name="Контур 92" d="M47.833,29.659a6.543,6.543,0,0,1-6.509-1.589c-.191-.249-.325-.536-.517-.766l-3.331.019c-.057,1.972-.077,4.212,0,6.164l3.695-.019.057-1.168c.421.191.842.44,1.264.651a10.363,10.363,0,0,0,8.4,0,4.985,4.985,0,0,0,2.565-5.092,5.841,5.841,0,0,0-4.25-4.441l-5.973-1.723-.44-.211a.67.67,0,0,1-.268-.651c.459-.8,1.551-.555,2.374-.536a6.094,6.094,0,0,1,4.518,2.393c1.091,0,2.336.019,3.523-.019.057-1.991-.019-3.733-.057-5.743-1.11-.019-2.47-.019-3.58.019a5.963,5.963,0,0,1-.077,1L48.1,17.33c-2.718-1.13-6.509-1.264-8.979.517a4.888,4.888,0,0,0-1.685,5.092c.325,1.742,1.991,3.025,3.6,3.637,2.2.785,4.5,1.34,6.72,2.087.23.1.517.325.459.593C48.236,29.448,48.006,29.582,47.833,29.659Z" transform="translate(-25.545 -6.082)" fill="#0d55a3"/>
      </g>
      <g id="Сгруппировать_129" data-name="Сгруппировать 129" transform="translate(49.787 5.435)">
        <path id="Контур_93" data-name="Контур 93" d="M32.416,26.317l.115.268a.1.1,0,0,1-.057.134l-3.561,1.532a.1.1,0,0,1-.134-.057l-.115-.268a.1.1,0,0,1,.057-.134l3.561-1.532C32.32,26.26,32.4,26.26,32.416,26.317Z" transform="translate(-27.304 13.622)" fill="#0d55a3"/>
        <path id="Контур_94" data-name="Контур 94" d="M31.382,24.836l.077.249a.109.109,0,0,1-.077.134l-1.723.574c-.517.172-.632.4-.5.8a1.9,1.9,0,0,0,.44.632l2.2-.747a.109.109,0,0,1,.134.077l.077.249a.109.109,0,0,1-.077.134l-2.661.9a.1.1,0,0,1-.134-.057l-.1-.268a.109.109,0,0,1,.077-.134l.1-.038A1.517,1.517,0,0,1,28.7,26.6c-.211-.632.077-1.034.785-1.283l1.723-.574C31.306,24.759,31.363,24.778,31.382,24.836Z" transform="translate(-27.324 12.232)" fill="#0d55a3"/>
        <path id="Контур_95" data-name="Контур 95" d="M31.478,23.754c.038.1.077.249.115.345.115.5.038.766-.536.9l-1.876.44.057.536a.128.128,0,0,1-.077.134l-.153.038c-.057.019-.1-.019-.115-.077l-.115-.517-.517.134a.109.109,0,0,1-.134-.077l-.115-.268v-.019c-.019-.038.019-.1.077-.1l.574-.134-.134-.574a.109.109,0,0,1,.077-.134l.191-.038a.109.109,0,0,1,.134.077l.134.574,1.876-.44c.287-.077.325-.153.268-.364l-.077-.306c-.019-.077,0-.115.057-.134l.191-.038C31.4,23.659,31.439,23.678,31.478,23.754Z" transform="translate(-27.898 11.265)" fill="#0d55a3"/>
        <path id="Контур_96" data-name="Контур 96" d="M29.64,22.515l.249,1.819.077-.019c.651-.1.861-.383.785-.881a6.508,6.508,0,0,0-.191-.957v-.019c0-.038,0-.1.057-.1l.191-.019c.077-.019.115,0,.134.1a6.38,6.38,0,0,1,.23.957,1.15,1.15,0,0,1-1.13,1.417l-.5.057a1.219,1.219,0,1,1-.325-2.412l.287-.038C29.563,22.4,29.621,22.439,29.64,22.515Zm-.364.421c-.613.077-.823.345-.766.842.057.459.364.689.957.613h.057l-.191-1.436Z" transform="translate(-27.821 10.034)" fill="#0d55a3"/>
        <path id="Контур_97" data-name="Контур 97" d="M28.371,21.478a1.543,1.543,0,0,0,.268.747l2.3-.115a.107.107,0,0,1,.115.1l.019.268a.107.107,0,0,1-.1.115l-2.8.153a.107.107,0,0,1-.115-.1l-.019-.249a.107.107,0,0,1,.1-.115h.115a1.352,1.352,0,0,1-.306-.766c0-.077.019-.115.1-.115l.23-.019C28.333,21.363,28.352,21.4,28.371,21.478Z" transform="translate(-27.95 9.157)" fill="#0d55a3"/>
        <path id="Контур_98" data-name="Контур 98" d="M31.061,20.033l-.019.268a.1.1,0,0,1-.115.1l-1.8-.077c-.555-.019-.727.153-.747.574a1.4,1.4,0,0,0,.191.747l2.316.1a.124.124,0,0,1,.115.115l-.019.268a.107.107,0,0,1-.115.1l-2.8-.115a.124.124,0,0,1-.115-.115l.019-.268a.107.107,0,0,1,.115-.1h.1a1.62,1.62,0,0,1-.211-.881c.019-.651.44-.938,1.187-.9l1.8.077A.107.107,0,0,1,31.061,20.033Z" transform="translate(-27.941 7.749)" fill="#0d55a3"/>
        <path id="Контур_99" data-name="Контур 99" d="M31.3,18.741l-.038.249c0,.057-.057.1-.134.1l-.115-.019a1.756,1.756,0,0,1,.153.881.792.792,0,0,1-1.015.747l-.057-.019c-.593-.077-.823-.479-.689-1.436l.057-.4-.211-.038c-.459-.057-.632.057-.708.5a5.22,5.22,0,0,0-.077.842v.019c0,.057-.038.1-.1.077l-.191-.019c-.057,0-.077-.057-.077-.134a5.185,5.185,0,0,1,.057-.861.929.929,0,0,1,1.187-.9l1.9.287A.219.219,0,0,1,31.3,18.741Zm-1.512.153-.057.4c-.1.651.019.861.4.919h.057c.383.057.517-.115.574-.421a1.394,1.394,0,0,0-.115-.766Z" transform="translate(-27.813 6.342)" fill="#0d55a3"/>
        <path id="Контур_100" data-name="Контур 100" d="M31.842,17.838a2.394,2.394,0,0,1-.057.364c-.115.5-.306.689-.9.555l-1.876-.44-.191.5c-.019.057-.057.1-.115.077l-.115-.038c-.057-.019-.077-.057-.077-.134l.115-.517-.517-.134c-.057-.019-.1-.057-.077-.115l.019-.287v-.019a.093.093,0,0,1,.115-.057l.593.134.134-.574a.109.109,0,0,1,.134-.077l.191.038a.109.109,0,0,1,.077.134l-.134.574,1.876.44c.287.077.364,0,.4-.211l.077-.306c.019-.077.038-.115.1-.1l.191.038A.3.3,0,0,1,31.842,17.838Z" transform="translate(-27.879 5.215)" fill="#0d55a3"/>
        <path id="Контур_101" data-name="Контур 101" d="M28.751,16.59l-.077.268a.109.109,0,0,1-.134.077l-.421-.134a.109.109,0,0,1-.077-.134l.077-.268a.109.109,0,0,1,.134-.077l.421.134A.109.109,0,0,1,28.751,16.59Zm3.35,1.034-.077.249a.109.109,0,0,1-.134.077l-2.68-.823a.109.109,0,0,1-.077-.134l.077-.249a.109.109,0,0,1,.134-.077l2.68.823A.109.109,0,0,1,32.1,17.624Z" transform="translate(-27.87 4.53)" fill="#0d55a3"/>
        <path id="Контур_102" data-name="Контур 102" d="M31.939,16.99a1.174,1.174,0,0,1-1.7.632l-.383-.153a1.23,1.23,0,1,1,.9-2.278l.383.153A1.184,1.184,0,0,1,31.939,16.99ZM30.58,15.65c-.517-.211-.938-.134-1.13.345s.057.823.574,1.034l.383.153c.517.211.938.134,1.13-.345s-.057-.823-.574-1.034Z" transform="translate(-27.038 3.383)" fill="#0d55a3"/>
        <path id="Контур_103" data-name="Контур 103" d="M33.146,14.8l-.134.23a.1.1,0,0,1-.153.038l-1.589-.861c-.5-.268-.727-.172-.919.191a1.861,1.861,0,0,0-.172.747l2.048,1.091a.115.115,0,0,1,.038.153l-.134.23a.1.1,0,0,1-.153.038l-2.45-1.3a.1.1,0,0,1-.038-.153l.134-.249a.1.1,0,0,1,.153-.038l.1.057a1.774,1.774,0,0,1,.191-.9c.306-.574.823-.651,1.455-.306l1.589.861A.184.184,0,0,1,33.146,14.8Z" transform="translate(-26.56 2.01)" fill="#0d55a3"/>
        <path id="Контур_104" data-name="Контур 104" d="M33.846,13.754l-.153.211a.1.1,0,0,1-.153.019l-.1-.057a1.607,1.607,0,0,1-.249.842.8.8,0,0,1-1.244.23l-.057-.038c-.5-.345-.536-.785.019-1.589l.23-.325-.191-.134c-.383-.268-.593-.211-.842.134a7.438,7.438,0,0,0-.44.708.019.019,0,0,1-.019.019.092.092,0,0,1-.134.038l-.153-.115c-.057-.038-.057-.077-.019-.153a4.561,4.561,0,0,1,.421-.747.926.926,0,0,1,1.455-.306l1.589,1.091A.113.113,0,0,1,33.846,13.754Zm-1.417-.517-.23.345c-.383.555-.345.785-.038,1l.057.038a.414.414,0,0,0,.689-.134,1.313,1.313,0,0,0,.23-.727Z" transform="translate(-25.786 0.819)" fill="#0d55a3"/>
        <path id="Контур_105" data-name="Контур 105" d="M34.188,13.814l-.172.23a.116.116,0,0,1-.153,0L30.8,11.593a.1.1,0,0,1-.019-.134l.172-.23a.1.1,0,0,1,.134-.019l3.063,2.45A.1.1,0,0,1,34.188,13.814Z" transform="translate(-25.381 -0.16)" fill="#0d55a3"/>
        <path id="Контур_106" data-name="Контур 106" d="M35.395,12.9c-.632.593-1.436.651-2.259-.249l-.479-.517c-.842-.9-.727-1.685-.1-2.278s1.436-.651,2.259.249l.479.517C36.141,11.525,36.026,12.31,35.395,12.9Zm-.957-2.45c-.632-.67-1.149-.67-1.589-.268s-.479.938.153,1.608l.479.517c.632.67,1.149.67,1.589.249.44-.4.479-.919-.153-1.589Z" transform="translate(-24.195 -1.776)" fill="#0d55a3"/>
        <path id="Контур_107" data-name="Контур 107" d="M34.831,9.19a1.3,1.3,0,0,0-.459.651l1.4,1.819a.119.119,0,0,1-.019.153l-.211.172a.119.119,0,0,1-.153-.019l-1.7-2.221a.1.1,0,0,1,.019-.153l.211-.153a.116.116,0,0,1,.153.019l.077.1a1.114,1.114,0,0,1,.459-.67.116.116,0,0,1,.153,0l.134.172A.112.112,0,0,1,34.831,9.19Z" transform="translate(-22.732 -2.294)" fill="#0d55a3"/>
        <path id="Контур_108" data-name="Контур 108" d="M36.464,8.3l-.134.153a.8.8,0,0,1,.459.383l.019.038c.325.517.191,1-.517,1.455a1.791,1.791,0,0,1-.593.249.206.206,0,0,0-.019.23c.057.077.115.1.23.057l.8-.268c.517-.172,1.053-.325,1.321.115l.019.038c.287.44.153.9-.593,1.4-.727.459-1.244.4-1.532-.057l-.019-.038a.853.853,0,0,1-.077-.766h-.038a.424.424,0,0,1-.44-.23h0a.487.487,0,0,1-.019-.459.819.819,0,0,1-.555-.4l-.019-.038c-.268-.421-.287-.957.5-1.474l1.015-.651a.125.125,0,0,1,.172.038l.077.115Q36.55,8.24,36.464,8.3Zm-.077.785c-.172-.268-.44-.421-.938-.1-.517.325-.479.632-.306.9l.019.019c.134.211.4.421.919.077.5-.325.5-.593.325-.861Zm1.244,1.876c-.115-.191-.306-.153-.8,0l-.613.191a.652.652,0,0,0,.077.613l.038.057c.172.249.421.325.938,0,.536-.345.555-.555.383-.823Z" transform="translate(-21.876 -3.067)" fill="#0d55a3"/>
        <path id="Контур_109" data-name="Контур 109" d="M38.92,9.936l-.23.115a.128.128,0,0,1-.153-.057l-.057-.115a1.671,1.671,0,0,1-.651.613.809.809,0,0,1-1.206-.4v-.057c-.268-.536-.077-.957.8-1.378l.364-.172-.1-.191c-.211-.421-.421-.479-.8-.287a5.578,5.578,0,0,0-.727.4c-.019,0-.019,0-.019.019a.087.087,0,0,1-.134-.038l-.077-.172c-.019-.057,0-.1.057-.153a6.5,6.5,0,0,1,.727-.44.917.917,0,0,1,1.417.459L38.977,9.8A.112.112,0,0,1,38.92,9.936Zm-.976-1.149-.364.172c-.593.287-.689.5-.517.861l.038.057c.172.364.383.364.67.23a1.629,1.629,0,0,0,.574-.517Z" transform="translate(-20.656 -3.576)" fill="#0d55a3"/>
        <path id="Контур_110" data-name="Контур 110" d="M40.387,9.472l-.249.1A.1.1,0,0,1,40,9.51l-.613-1.7c-.191-.517-.421-.613-.823-.479a1.887,1.887,0,0,0-.632.459l.785,2.182a.1.1,0,0,1-.057.134l-.249.1a.117.117,0,0,1-.134-.057L37.323,7.5a.1.1,0,0,1,.057-.134l.268-.1a.117.117,0,0,1,.134.057l.038.1a1.644,1.644,0,0,1,.727-.536c.613-.23,1.034.057,1.283.747l.613,1.7A.1.1,0,0,1,40.387,9.472Z" transform="translate(-19.385 -4.165)" fill="#0d55a3"/>
        <path id="Контур_111" data-name="Контур 111" d="M39.279,6.574l-.268.077a.109.109,0,0,1-.134-.077l-.115-.421a.109.109,0,0,1,.077-.134l.268-.077a.109.109,0,0,1,.134.077l.115.421A.109.109,0,0,1,39.279,6.574ZM40.2,9.963l-.249.077a.109.109,0,0,1-.134-.077l-.727-2.7a.109.109,0,0,1,.077-.134l.249-.077a.109.109,0,0,1,.134.077l.727,2.7A.109.109,0,0,1,40.2,9.963Z" transform="translate(-18.067 -4.962)" fill="#0d55a3"/>
        <path id="Контур_112" data-name="Контур 112" d="M42.053,9.144l-1.627.325c-.23.038-.364-.077-.383-.23l-.019-.1a.461.461,0,0,1,.057-.383l1.053-2.01c0-.019.019-.038.019-.057s-.019-.038-.057-.019l-1.321.249a.109.109,0,0,1-.134-.077L39.6,6.655a.109.109,0,0,1,.077-.134l1.589-.306c.23-.038.325.038.364.211l.019.134a.5.5,0,0,1-.057.325L40.521,8.933a.1.1,0,0,0-.019.057c0,.019.019.038.057.038L42,8.742a.109.109,0,0,1,.134.077l.038.191A.2.2,0,0,1,42.053,9.144Z" transform="translate(-17.299 -4.718)" fill="#0d55a3"/>
        <path id="Контур_113" data-name="Контур 113" d="M43.276,9.022l-.249.019a.107.107,0,0,1-.115-.1l-.019-.115a1.655,1.655,0,0,1-.823.345.8.8,0,0,1-.976-.8V8.314c-.057-.593.268-.919,1.244-1.015l.4-.038L42.72,7.05c-.038-.459-.211-.613-.651-.574-.364.038-.613.077-.842.115h-.019c-.057,0-.1,0-.1-.077l-.019-.191c0-.057.019-.1.1-.115a4.826,4.826,0,0,1,.842-.153.928.928,0,0,1,1.168.938l.172,1.914A.121.121,0,0,1,43.276,9.022Zm-.517-1.417-.4.038c-.67.057-.823.23-.785.613v.057c.038.4.23.479.555.459a1.846,1.846,0,0,0,.708-.287Z" transform="translate(-15.937 -4.864)" fill="#0d55a3"/>
        <path id="Контур_114" data-name="Контур 114" d="M44.19,9.355a2.346,2.346,0,0,1-.364.038c-.5,0-.747-.115-.766-.727l-.019-1.914L42.5,6.694a.121.121,0,0,1-.115-.1V6.445a.09.09,0,0,1,.1-.1h.536V5.813a.121.121,0,0,1,.1-.115L43.4,5.66h.019a.088.088,0,0,1,.077.1v.593h.593a.11.11,0,0,1,.115.115v.191a.124.124,0,0,1-.115.115L43.5,6.79,43.539,8.7c0,.306.077.345.306.345h.306c.077,0,.115.019.115.077v.191C44.285,9.3,44.247,9.336,44.19,9.355Z" transform="translate(-14.746 -5.216)" fill="#0d55a3"/>
        <path id="Контур_115" data-name="Контур 115" d="M44.006,9.605l-.268-.019a.1.1,0,0,1-.1-.115l.172-2.8a.1.1,0,0,1,.115-.1L44.2,6.6a.1.1,0,0,1,.1.115l-.172,2.8A.107.107,0,0,1,44.006,9.605Zm.211-3.5-.287-.019a.1.1,0,0,1-.1-.115l.019-.44a.1.1,0,0,1,.115-.1l.287.019a.107.107,0,0,1,.1.115l-.019.44A.1.1,0,0,1,44.216,6.1Z" transform="translate(-13.604 -5.428)" fill="#0d55a3"/>
        <path id="Контур_116" data-name="Контур 116" d="M45.324,9.21A1.173,1.173,0,0,1,44.29,7.717l.057-.421c.115-.8.593-1.283,1.4-1.168a1.173,1.173,0,0,1,1.034,1.493l-.057.421C46.607,8.847,46.128,9.325,45.324,9.21Zm.957-1.646c.077-.555-.1-.938-.613-1.015-.5-.057-.785.249-.862.8l-.057.421c-.077.555.1.938.613,1.015.5.057.785-.249.862-.8Z" transform="translate(-13.028 -4.803)" fill="#0d55a3"/>
        <path id="Контур_117" data-name="Контур 117" d="M47.838,9.778l-.249-.057a.109.109,0,0,1-.077-.134l.44-1.761c.134-.536,0-.747-.4-.861a1.736,1.736,0,0,0-.766.019l-.574,2.259a.109.109,0,0,1-.134.077l-.268-.057a.109.109,0,0,1-.077-.134l.689-2.719a.109.109,0,0,1,.134-.077l.268.077a.109.109,0,0,1,.077.134l-.019.1A1.507,1.507,0,0,1,47.8,6.62c.632.172.823.632.651,1.34L47.972,9.7A.109.109,0,0,1,47.838,9.778Z" transform="translate(-11.694 -4.606)" fill="#0d55a3"/>
        <path id="Контур_118" data-name="Контур 118" d="M50.426,7.211l-.249-.1c-.23-.1-.345-.057-.459.23l-.153.364.536.211a.1.1,0,0,1,.057.134l-.077.191a.082.082,0,0,1-.134.038l-.536-.23-.957,2.316a.105.105,0,0,1-.134.057l-.249-.1c-.057,0-.077-.077-.057-.134l.957-2.316-.479-.268a.1.1,0,0,1-.057-.134l.057-.134a.1.1,0,0,1,.134-.057l.5.211.153-.364a.658.658,0,0,1,1-.421.822.822,0,0,1,.268.153q.086.057.057.115l-.077.172C50.521,7.23,50.483,7.23,50.426,7.211Z" transform="translate(-9.61 -4.336)" fill="#0d55a3"/>
        <path id="Контур_119" data-name="Контур 119" d="M49.52,10.519a1.18,1.18,0,0,1-.459-1.761l.191-.364a1.23,1.23,0,1,1,2.163,1.149l-.191.364A1.174,1.174,0,0,1,49.52,10.519Zm1.474-1.206c.268-.5.23-.919-.23-1.149s-.823-.038-1.072.479l-.191.364c-.268.5-.23.919.23,1.149s.823.038,1.091-.459Z" transform="translate(-8.838 -3.432)" fill="#0d55a3"/>
        <path id="Контур_120" data-name="Контур 120" d="M52.452,9.208A1.34,1.34,0,0,0,51.686,9l-1.244,1.934a.149.149,0,0,1-.153.038l-.23-.153a.116.116,0,0,1-.019-.153l1.512-2.355a.1.1,0,0,1,.153-.038l.211.134a.1.1,0,0,1,.019.153l-.038.1a1.2,1.2,0,0,1,.785.191A.1.1,0,0,1,52.72,9l-.115.191C52.567,9.246,52.529,9.246,52.452,9.208Z" transform="translate(-7.769 -2.848)" fill="#0d55a3"/>
        <path id="Контур_121" data-name="Контур 121" d="M52,12.478a4.834,4.834,0,0,1-.632-.651c-.057-.077-.057-.1-.019-.153l.153-.172a.093.093,0,0,1,.134,0l.019.019a6.681,6.681,0,0,0,.67.613c.5.44.8.345,1.053.057.172-.211.153-.421-.019-1l-.191-.593c-.172-.574-.191-.938.1-1.283.44-.5,1-.421,1.627.115.249.211.536.517.689.67a.093.093,0,0,1,0,.134l-.153.172c-.038.038-.077.038-.134,0h0c-.172-.172-.459-.44-.689-.651-.421-.364-.689-.44-.957-.134-.172.191-.134.44.019.9l.191.555c.23.708.211,1.072-.077,1.417C53.42,12.938,52.827,13.186,52,12.478Z" transform="translate(-6.574 -2.175)" fill="#0d55a3"/>
        <path id="Контур_122" data-name="Контур 122" d="M53.159,13.537a1.544,1.544,0,0,1-.268-.23c-.364-.364-.421-.632,0-1.053l1.378-1.34-.325-.421a.116.116,0,0,1,0-.153l.115-.1a.093.093,0,0,1,.134,0l.383.383.383-.383a.116.116,0,0,1,.153,0l.23.172.019.019c.038.038.038.077,0,.134l-.421.421.421.421a.116.116,0,0,1,0,.153l-.134.134a.116.116,0,0,1-.153,0l-.421-.421-1.378,1.34c-.211.211-.191.287-.038.459l.211.211c.057.057.057.1.019.134l-.134.134A.186.186,0,0,1,53.159,13.537Z" transform="translate(-5.413 -1.051)" fill="#0d55a3"/>
        <path id="Контур_123" data-name="Контур 123" d="M54.225,14.535l-.153-.191a.1.1,0,0,1,.019-.153l.1-.077a1.8,1.8,0,0,1-.747-.479.809.809,0,0,1,.115-1.264l.057-.038c.459-.383.919-.287,1.532.459l.249.306.172-.134c.364-.287.383-.517.115-.842-.23-.268-.4-.459-.574-.632a.019.019,0,0,0-.019-.019.08.08,0,0,1,0-.134l.153-.115c.038-.038.1-.038.153.019a4.607,4.607,0,0,1,.593.613.942.942,0,0,1-.115,1.493l-1.493,1.206A.145.145,0,0,1,54.225,14.535Zm.9-1.225L54.876,13c-.421-.517-.651-.555-.938-.306l-.077.038a.434.434,0,0,0-.077.708,1.559,1.559,0,0,0,.632.44Z" transform="translate(-4.871 -0.154)" fill="#0d55a3"/>
        <path id="Контур_124" data-name="Контур 124" d="M55.119,15.846l-.134-.23a.1.1,0,0,1,.038-.153l1.512-.976c.459-.306.5-.555.287-.9a1.642,1.642,0,0,0-.574-.5L54.3,14.353a.106.106,0,0,1-.153-.038l-.153-.23a.106.106,0,0,1,.038-.153L56.383,12.4a.116.116,0,0,1,.153.019l.153.23a.1.1,0,0,1-.038.153l-.1.057a1.612,1.612,0,0,1,.689.593c.364.555.172,1.034-.44,1.417l-1.512.976C55.215,15.9,55.138,15.9,55.119,15.846Z" transform="translate(-4.157 0.928)" fill="#0d55a3"/>
        <path id="Контур_125" data-name="Контур 125" d="M55.6,16.888a4.988,4.988,0,0,1-.536-.861c-.364-.727-.057-1.3.689-1.685l.364-.172a1.144,1.144,0,0,1,1.742.479,3.5,3.5,0,0,1,.23.593l.919-.459a.11.11,0,0,1,.134.038l.134.249a.105.105,0,0,1-.057.134l-3.446,1.723C55.695,16.965,55.657,16.965,55.6,16.888Zm2.106-1.474a5.511,5.511,0,0,0-.249-.593c-.249-.479-.613-.5-1.149-.23l-.345.172c-.536.268-.766.574-.517,1.053a5.157,5.157,0,0,0,.306.555Z" transform="translate(-3.297 2.375)" fill="#0d55a3"/>
        <path id="Контур_126" data-name="Контур 126" d="M56.025,18.141l-.1-.23a.1.1,0,0,1,.057-.134l.115-.038a1.774,1.774,0,0,1-.555-.689.807.807,0,0,1,.517-1.149l.057-.019c.555-.211.957.019,1.3.938l.134.383.211-.077c.44-.153.536-.364.383-.766-.134-.345-.23-.574-.325-.766,0-.019,0-.019-.019-.019a.075.075,0,0,1,.057-.115l.172-.057c.057-.019.1,0,.134.077a4.874,4.874,0,0,1,.364.766.921.921,0,0,1-.593,1.359l-1.8.67C56.12,18.218,56.044,18.179,56.025,18.141Zm1.244-.861-.134-.383c-.23-.632-.44-.727-.8-.593l-.057.019c-.364.134-.4.345-.287.651a1.522,1.522,0,0,0,.459.613Z" transform="translate(-2.784 3.687)" fill="#0d55a3"/>
        <path id="Контур_127" data-name="Контур 127" d="M58.735,18.055a1.514,1.514,0,0,0-.421-.67L56.093,18a.109.109,0,0,1-.134-.077l-.077-.268a.109.109,0,0,1,.077-.134l2.7-.747a.109.109,0,0,1,.134.077l.077.249a.109.109,0,0,1-.077.134l-.115.038a1.327,1.327,0,0,1,.459.67c.019.077,0,.115-.057.134l-.211.057C58.792,18.151,58.754,18.132,58.735,18.055Z" transform="translate(-2.412 4.941)" fill="#0d55a3"/>
        <path id="Контур_128" data-name="Контур 128" d="M56.462,20.277a4.64,4.64,0,0,1-.268-.976c-.153-.8.306-1.283,1.11-1.436l.383-.077c.842-.153,1.4.153,1.551.938a3.291,3.291,0,0,1,.057.651l1.015-.191a.084.084,0,0,1,.115.077l.057.268c.019.057-.019.1-.077.115l-3.791.708C56.539,20.373,56.5,20.373,56.462,20.277Zm2.431-.823a6.336,6.336,0,0,0-.077-.632c-.1-.536-.459-.651-1.034-.536l-.383.077c-.593.115-.881.345-.785.881.038.191.1.44.153.632Z" transform="translate(-2.149 5.84)" fill="#0d55a3"/>
        <path id="Контур_129" data-name="Контур 129" d="M56.359,20.045l-.019-.268a.107.107,0,0,1,.1-.115l2.8-.287a.107.107,0,0,1,.115.1l.019.268a.107.107,0,0,1-.1.115l-2.8.287C56.436,20.16,56.378,20.121,56.359,20.045Zm3.5-.345-.038-.287a.107.107,0,0,1,.1-.115l.44-.038a.107.107,0,0,1,.115.1l.019.287a.107.107,0,0,1-.1.115l-.44.038A.1.1,0,0,1,59.863,19.7Z" transform="translate(-1.989 7.22)" fill="#0d55a3"/>
        <path id="Контур_130" data-name="Контур 130" d="M56.457,22.049,56.4,20.384c0-.23.134-.345.287-.345h.1a.518.518,0,0,1,.364.115l1.819,1.359a.07.07,0,0,0,.057.019c.019,0,.038-.019.038-.057l-.038-1.34a.11.11,0,0,1,.115-.115h.191a.107.107,0,0,1,.115.1l.057,1.627c0,.23-.1.306-.268.306H59.1a.509.509,0,0,1-.306-.115l-1.857-1.4a.07.07,0,0,0-.057-.019c-.019,0-.038,0-.038.038l.038,1.455a.11.11,0,0,1-.115.115h-.191C56.5,22.164,56.457,22.107,56.457,22.049Z" transform="translate(-1.934 7.915)" fill="#0d55a3"/>
        <path id="Контур_131" data-name="Контур 131" d="M56.35,23.43l.019-.249a.1.1,0,0,1,.115-.1H56.6a1.69,1.69,0,0,1-.211-.861.821.821,0,0,1,.957-.842H57.4c.593.038.861.4.8,1.378l-.019.4.211.019c.459.038.632-.115.67-.536.019-.364.019-.613.019-.842v-.019c0-.057.019-.1.1-.1l.191.019c.057,0,.1.038.1.134a5.842,5.842,0,0,1,.019.861.931.931,0,0,1-1.11,1l-1.914-.134A.14.14,0,0,1,56.35,23.43Zm1.493-.268.019-.4c.038-.67-.1-.842-.479-.881h-.057c-.4-.019-.517.153-.536.479a1.476,1.476,0,0,0,.172.766Z" transform="translate(-1.98 9.158)" fill="#0d55a3"/>
        <path id="Контур_132" data-name="Контур 132" d="M56.18,24.162a2.345,2.345,0,0,1,.038-.364c.077-.5.249-.727.842-.632l1.9.306.153-.517a.121.121,0,0,1,.115-.1l.153.019a.084.084,0,0,1,.077.115l-.077.536.536.077a.107.107,0,0,1,.1.115v.306c0,.038-.057.077-.115.057l-.593-.1-.1.593a.128.128,0,0,1-.134.1l-.191-.038c-.057,0-.1-.057-.1-.134l.1-.593-1.9-.306c-.306-.038-.364.019-.383.249l-.038.306c-.019.077-.038.115-.1.1l-.191-.038C56.218,24.258,56.18,24.219,56.18,24.162Z" transform="translate(-2.135 10.512)" fill="#0d55a3"/>
        <path id="Контур_133" data-name="Контур 133" d="M56.08,24.178l.057-.249a.109.109,0,0,1,.134-.077l2.738.613a.109.109,0,0,1,.077.134l-.057.249a.109.109,0,0,1-.134.077l-2.738-.613A.161.161,0,0,1,56.08,24.178Zm3.427.766.057-.268A.109.109,0,0,1,59.7,24.6l.421.1a.109.109,0,0,1,.077.134l-.057.268a.109.109,0,0,1-.134.077l-.421-.1C59.545,25.078,59.507,25,59.507,24.944Z" transform="translate(-2.227 11.415)" fill="#0d55a3"/>
        <path id="Контур_134" data-name="Контур 134" d="M55.842,25.38a1.168,1.168,0,0,1,1.646-.766l.4.115a1.159,1.159,0,0,1,.919,1.551,1.188,1.188,0,0,1-1.646.785l-.4-.115A1.194,1.194,0,0,1,55.842,25.38ZM57.3,26.605c.536.172.938.057,1.091-.44s-.115-.8-.67-.976l-.4-.115c-.536-.172-.938-.057-1.091.44s.115.8.651.976Z" transform="translate(-2.505 12.032)" fill="#0d55a3"/>
        <path id="Контур_135" data-name="Контур 135" d="M55.093,27.834l.115-.249a.121.121,0,0,1,.153-.057l1.666.727c.517.23.747.115.9-.268a1.625,1.625,0,0,0,.1-.766L55.9,26.3a.121.121,0,0,1-.057-.153l.115-.249a.121.121,0,0,1,.153-.057l2.565,1.13a.1.1,0,0,1,.057.134l-.115.249a.1.1,0,0,1-.134.057l-.1-.038a1.571,1.571,0,0,1-.115.9c-.268.613-.766.708-1.436.421l-1.666-.727C55.093,27.968,55.074,27.892,55.093,27.834Z" transform="translate(-3.135 13.234)" fill="#0d55a3"/>
      </g>
      <g id="Сгруппировать_130" data-name="Сгруппировать 130" transform="translate(61.561 58.699)">
        <path id="Контур_136" data-name="Контур 136" d="M34.2,37.289l.957-.115a.63.63,0,0,0,.191.44.539.539,0,0,0,.4.134.608.608,0,0,0,.517-.287,2.317,2.317,0,0,0,.268-1.187,1.217,1.217,0,0,1-.938.44,1.361,1.361,0,0,1-1.053-.479,1.694,1.694,0,0,1-.44-1.225,1.718,1.718,0,0,1,.479-1.283,1.573,1.573,0,0,1,1.206-.479,1.633,1.633,0,0,1,1.3.613,3.09,3.09,0,0,1,.517,2.01,3.15,3.15,0,0,1-.536,2.068,1.691,1.691,0,0,1-1.378.632,1.555,1.555,0,0,1-1-.325A1.406,1.406,0,0,1,34.2,37.289Zm2.259-2.182a1.089,1.089,0,0,0-.23-.747.692.692,0,0,0-.517-.268.583.583,0,0,0-.459.211,1.477,1.477,0,0,0,0,1.455.645.645,0,0,0,.5.23.607.607,0,0,0,.479-.23A.755.755,0,0,0,36.455,35.107Z" transform="translate(-34.1 -33.25)" fill="#0d55a3"/>
        <path id="Контур_137" data-name="Контур 137" d="M37.945,33.26a1.43,1.43,0,0,1,1.187.536,3.39,3.39,0,0,1,.517,2.125,3.428,3.428,0,0,1-.517,2.125,1.406,1.406,0,0,1-1.187.536,1.471,1.471,0,0,1-1.225-.593A3.5,3.5,0,0,1,36.26,35.9a3.466,3.466,0,0,1,.517-2.125A1.407,1.407,0,0,1,37.945,33.26Zm0,.823a.52.52,0,0,0-.325.115.785.785,0,0,0-.23.421,5.3,5.3,0,0,0-.1,1.3,5.918,5.918,0,0,0,.1,1.264.85.85,0,0,0,.23.459.483.483,0,0,0,.325.115.52.52,0,0,0,.325-.115.785.785,0,0,0,.23-.421,5.3,5.3,0,0,0,.1-1.3,5.918,5.918,0,0,0-.1-1.264.85.85,0,0,0-.23-.459A.52.52,0,0,0,37.945,34.083Z" transform="translate(-32.125 -33.241)" fill="#0d55a3"/>
        <path id="Контур_138" data-name="Контур 138" d="M40.055,33.26a1.43,1.43,0,0,1,1.187.536,3.39,3.39,0,0,1,.517,2.125,3.428,3.428,0,0,1-.517,2.125,1.406,1.406,0,0,1-1.187.536,1.471,1.471,0,0,1-1.225-.593A3.5,3.5,0,0,1,38.37,35.9a3.466,3.466,0,0,1,.517-2.125A1.407,1.407,0,0,1,40.055,33.26Zm0,.823a.52.52,0,0,0-.325.115.785.785,0,0,0-.23.421,5.3,5.3,0,0,0-.1,1.3,5.918,5.918,0,0,0,.1,1.264.85.85,0,0,0,.23.459.483.483,0,0,0,.325.115.52.52,0,0,0,.325-.115.785.785,0,0,0,.23-.421,5.3,5.3,0,0,0,.1-1.3,5.917,5.917,0,0,0-.1-1.264.85.85,0,0,0-.23-.459A.483.483,0,0,0,40.055,34.083Z" transform="translate(-30.195 -33.241)" fill="#0d55a3"/>
        <path id="Контур_139" data-name="Контур 139" d="M42.908,38.486h-1V34.715a3.635,3.635,0,0,1-1.283.766v-.9a2.741,2.741,0,0,0,.842-.479,1.793,1.793,0,0,0,.632-.842h.8Z" transform="translate(-28.129 -33.241)" fill="#0d55a3"/>
        <path id="Контур_140" data-name="Контур 140" d="M42.81,35.016v-1h1v1Zm0,2.776v-1h1v1Z" transform="translate(-26.135 -32.546)" fill="#0d55a3"/>
        <path id="Контур_141" data-name="Контур 141" d="M47.3,37.567v.919H43.8a2.382,2.382,0,0,1,.345-1,6.434,6.434,0,0,1,1.13-1.244,5.622,5.622,0,0,0,.823-.861,1.125,1.125,0,0,0,.211-.613.7.7,0,0,0-.172-.517.684.684,0,0,0-.5-.172.623.623,0,0,0-.5.191,1.023,1.023,0,0,0-.211.632l-1-.1a1.664,1.664,0,0,1,.555-1.187,1.811,1.811,0,0,1,1.168-.364,1.626,1.626,0,0,1,1.206.421,1.358,1.358,0,0,1,.44,1.034,1.613,1.613,0,0,1-.134.67,2.3,2.3,0,0,1-.4.67,6.4,6.4,0,0,1-.651.67c-.306.287-.517.479-.593.574s-.153.191-.211.268H47.3Z" transform="translate(-25.23 -33.241)" fill="#0d55a3"/>
        <path id="Контур_142" data-name="Контур 142" d="M47.665,33.26a1.43,1.43,0,0,1,1.187.536,3.39,3.39,0,0,1,.517,2.125,3.428,3.428,0,0,1-.517,2.125,1.406,1.406,0,0,1-1.187.536,1.471,1.471,0,0,1-1.225-.593A3.5,3.5,0,0,1,45.98,35.9a3.466,3.466,0,0,1,.517-2.125A1.407,1.407,0,0,1,47.665,33.26Zm0,.823a.52.52,0,0,0-.325.115.785.785,0,0,0-.23.421,5.3,5.3,0,0,0-.1,1.3,5.918,5.918,0,0,0,.1,1.264.85.85,0,0,0,.23.459.483.483,0,0,0,.325.115.52.52,0,0,0,.325-.115.785.785,0,0,0,.23-.421,5.3,5.3,0,0,0,.1-1.3,5.918,5.918,0,0,0-.1-1.264.85.85,0,0,0-.23-.459A.483.483,0,0,0,47.665,34.083Z" transform="translate(-23.236 -33.241)" fill="#0d55a3"/>
        <path id="Контур_143" data-name="Контур 143" d="M50.518,38.486h-1V34.715a3.635,3.635,0,0,1-1.283.766v-.9a2.741,2.741,0,0,0,.842-.479,1.793,1.793,0,0,0,.632-.842h.8Z" transform="translate(-21.17 -33.241)" fill="#0d55a3"/>
        <path id="Контур_144" data-name="Контур 144" d="M50.22,37.11l1-.1a.831.831,0,0,0,.249.536.665.665,0,0,0,.479.191.679.679,0,0,0,.536-.249,1.109,1.109,0,0,0,.211-.766A1.136,1.136,0,0,0,52.479,36a.723.723,0,0,0-.555-.249,1.028,1.028,0,0,0-.766.383l-.8-.115.517-2.718h2.642v.938H51.637l-.153.881a1.471,1.471,0,0,1,.689-.172,1.491,1.491,0,0,1,1.13.479,1.769,1.769,0,0,1,.459,1.264,1.907,1.907,0,0,1-.364,1.149,1.659,1.659,0,0,1-1.417.689,1.749,1.749,0,0,1-1.168-.383A1.38,1.38,0,0,1,50.22,37.11Z" transform="translate(-19.359 -33.204)" fill="#0d55a3"/>
      </g>
    </g>
    <g id="Сгруппировать_131" data-name="Сгруппировать 131" transform="translate(4.07 5.42)">
      <path id="Контур_145" data-name="Контур 145" d="M8.569,9.757l1.3.421a2.645,2.645,0,0,1-2.757,2.144,2.915,2.915,0,0,1-2.182-.9A3.482,3.482,0,0,1,4.07,8.933a3.634,3.634,0,0,1,.861-2.584A2.943,2.943,0,0,1,7.191,5.43a2.8,2.8,0,0,1,1.991.727,2.612,2.612,0,0,1,.689,1.225l-1.34.325a1.4,1.4,0,0,0-.5-.823,1.474,1.474,0,0,0-.919-.306,1.492,1.492,0,0,0-1.206.536,2.775,2.775,0,0,0-.44,1.723,2.783,2.783,0,0,0,.459,1.8,1.418,1.418,0,0,0,1.168.536,1.3,1.3,0,0,0,.919-.345A1.9,1.9,0,0,0,8.569,9.757Z" transform="translate(-4.07 -5.411)" fill="#1e1e1c"/>
      <path id="Контур_146" data-name="Контур 146" d="M10.669,9.8l1.283.211a2.249,2.249,0,0,1-.766,1.072,2.3,2.3,0,0,1-1.34.364,2.126,2.126,0,0,1-1.857-.823A2.723,2.723,0,0,1,7.51,8.955a2.617,2.617,0,0,1,.632-1.876A2.045,2.045,0,0,1,9.731,6.39a2.13,2.13,0,0,1,1.7.708,3.233,3.233,0,0,1,.574,2.182h-3.2a1.258,1.258,0,0,0,.306.881.942.942,0,0,0,.727.306.75.75,0,0,0,.5-.172A.7.7,0,0,0,10.669,9.8Zm.077-1.283a1.152,1.152,0,0,0-.287-.842.815.815,0,0,0-.651-.306.838.838,0,0,0-.689.306,1.183,1.183,0,0,0-.287.842Z" transform="translate(-0.924 -4.533)" fill="#1e1e1c"/>
      <path id="Контур_147" data-name="Контур 147" d="M11.663,11.32H10.38V6.5h1.187v.689a1.883,1.883,0,0,1,.555-.632,1.047,1.047,0,0,1,.555-.153,1.538,1.538,0,0,1,.842.249l-.4,1.091a1.176,1.176,0,0,0-.593-.211.779.779,0,0,0-.459.153.84.84,0,0,0-.287.536,7.1,7.1,0,0,0-.115,1.627Z" transform="translate(1.7 -4.524)" fill="#1e1e1c"/>
      <path id="Контур_148" data-name="Контур 148" d="M14.777,7.264V8.279H13.9v1.953a4.754,4.754,0,0,0,.019.689.3.3,0,0,0,.115.153.386.386,0,0,0,.211.057,1.823,1.823,0,0,0,.517-.115l.115,1a2.46,2.46,0,0,1-1.015.191,1.686,1.686,0,0,1-.632-.115.755.755,0,0,1-.4-.306.9.9,0,0,1-.172-.5,7.873,7.873,0,0,1-.038-.9V8.278H12.02V7.264h.593V6.307L13.9,5.56v1.7Z" transform="translate(3.2 -5.292)" fill="#1e1e1c"/>
      <path id="Контур_149" data-name="Контур 149" d="M13.92,6.677V5.49H15.2V6.677Zm0,5.475V7.328H15.2v4.824H13.92Z" transform="translate(4.937 -5.356)" fill="#1e1e1c"/>
      <path id="Контур_150" data-name="Контур 150" d="M14.98,7.392h.708V7.028a2.326,2.326,0,0,1,.134-.919,1.187,1.187,0,0,1,.479-.5,1.716,1.716,0,0,1,.881-.191,3.4,3.4,0,0,1,1.072.172l-.172.9a2.2,2.2,0,0,0-.593-.077.486.486,0,0,0-.4.134.79.79,0,0,0-.115.5v.345h.957v1h-.957v3.829H15.688V8.387H14.98Z" transform="translate(5.907 -5.42)" fill="#1e1e1c"/>
      <path id="Контур_151" data-name="Контур 151" d="M16.89,6.677V5.49h1.283V6.677Zm0,5.475V7.328h1.283v4.824H16.89Z" transform="translate(7.653 -5.356)" fill="#1e1e1c"/>
      <path id="Контур_152" data-name="Контур 152" d="M21.2,9.8l1.283.211A2.01,2.01,0,0,1,20.4,11.444a2.126,2.126,0,0,1-1.857-.823,2.723,2.723,0,0,1-.479-1.666,2.617,2.617,0,0,1,.632-1.876,2.288,2.288,0,0,1,3.293.019,3.132,3.132,0,0,1,.593,2.182h-3.2a1.258,1.258,0,0,0,.306.881.942.942,0,0,0,.727.306.75.75,0,0,0,.5-.172A.817.817,0,0,0,21.2,9.8Zm.077-1.283a1.152,1.152,0,0,0-.287-.842.9.9,0,0,0-.67-.287.838.838,0,0,0-.689.306,1.251,1.251,0,0,0-.268.823Z" transform="translate(8.723 -4.533)" fill="#1e1e1c"/>
      <path id="Контур_153" data-name="Контур 153" d="M25.51,12.152H24.323v-.708a1.9,1.9,0,0,1-.689.613,1.8,1.8,0,0,1-.8.211,1.824,1.824,0,0,1-1.417-.67A2.61,2.61,0,0,1,20.8,9.721a2.663,2.663,0,0,1,.574-1.857,1.9,1.9,0,0,1,1.455-.632,1.814,1.814,0,0,1,1.4.67V5.49H25.51v6.662ZM22.1,9.644a2.269,2.269,0,0,0,.211,1.11.987.987,0,0,0,.861.5.962.962,0,0,0,.747-.383,1.729,1.729,0,0,0,.306-1.13,1.861,1.861,0,0,0-.306-1.206.925.925,0,0,0-.766-.364.951.951,0,0,0-.766.364A1.868,1.868,0,0,0,22.1,9.644Z" transform="translate(11.229 -5.356)" fill="#1e1e1c"/>
    </g>
  </g>
</svg>
