<svg width="16" height="16" viewBox="0 0 16 16" fill="none" xmlns="http://www.w3.org/2000/svg">
<path d="M0.213989 15.25H15.464V0H0.213989V15.25ZM5.89699 10.983H4.33099V5.945H5.89699V10.983ZM5.10399 5.327C4.99798 5.33369 4.89174 5.31826 4.79202 5.28169C4.6923 5.24512 4.60128 5.18821 4.52473 5.11457C4.44819 5.04094 4.38779 4.95219 4.34738 4.85397C4.30697 4.75574 4.28743 4.65018 4.28999 4.544C4.28587 4.43609 4.30461 4.32852 4.34499 4.22836C4.38536 4.12821 4.44645 4.03772 4.52426 3.96283C4.60207 3.88795 4.69485 3.83036 4.79648 3.79386C4.89811 3.75735 5.00631 3.74274 5.11398 3.751C5.22222 3.74408 5.33072 3.75952 5.43272 3.79636C5.53473 3.8332 5.62807 3.89064 5.70691 3.96512C5.78575 4.0396 5.8484 4.12951 5.89098 4.22926C5.93355 4.32901 5.95513 4.43645 5.95438 4.5449C5.95362 4.65336 5.93055 4.76049 5.88658 4.85963C5.84262 4.95878 5.77871 5.04781 5.69884 5.12118C5.61897 5.19455 5.52484 5.25069 5.42233 5.2861C5.31982 5.32151 5.21111 5.33543 5.10298 5.327H5.10399ZM11.934 10.983H10.368V8.191C10.368 7.542 10.141 7.099 9.57498 7.099C9.39763 7.10007 9.22521 7.15752 9.08266 7.26305C8.9401 7.36857 8.8348 7.51669 8.78198 7.686C8.7372 7.81135 8.71618 7.94395 8.71999 8.077V10.982H7.15399V7.552C7.15399 6.924 7.13299 6.388 7.11299 5.945H8.47299L8.54498 6.635H8.57599C8.74889 6.3833 8.98156 6.17845 9.25313 6.03883C9.5247 5.8992 9.82668 5.82917 10.132 5.835C11.162 5.835 11.932 6.515 11.932 7.999L11.934 10.983Z" fill="#00ACDE"/>
</svg>
