<svg xmlns="http://www.w3.org/2000/svg" xmlns:xlink="http://www.w3.org/1999/xlink" width="17.542" height="16.973" viewBox="0 0 17.542 16.973">
  <defs>
    <clipPath id="clip-path">
      <rect id="Прямоугольник_456" data-name="Прямоугольник 456" width="17.542" height="16.973" fill="#bcbcbc"/>
    </clipPath>
  </defs>
  <g id="Сгруппировать_62" data-name="Сгруппировать 62" transform="translate(0 0)">
    <g id="Сгруппировать_35" data-name="Сгруппировать 35" transform="translate(0 0)" clip-path="url(#clip-path)">
      <path id="Контур_31" data-name="Контур 31" d="M16.628,12.273c-.267-.131-.55-.239-.775-.358l-1.934-1.022a1.321,1.321,0,0,0-.628-.2c-.852.021-1.248,1.235-1.805,1.7a1.381,1.381,0,0,1-.79.383,1.508,1.508,0,0,1-.7-.192A11.609,11.609,0,0,1,6.957,10.5a16.835,16.835,0,0,1-1.9-2.2,2.544,2.544,0,0,1-.579-1.183C4.364,6.032,5.906,5.653,5.948,4.561a2.583,2.583,0,0,0-.337-1.137,15.4,15.4,0,0,1-.729-1.916A1.779,1.779,0,0,0,2.515.079C.9.438.058,2.694,0,4.132A8.5,8.5,0,0,0,1.621,8.723,27.169,27.169,0,0,0,4.8,12.778a14.976,14.976,0,0,0,7.684,4.1,5.553,5.553,0,0,0,1.659.06,3.979,3.979,0,0,0,2.445-1.346c.57-.661,1.309-1.9.761-2.757a1.73,1.73,0,0,0-.722-.559" transform="translate(0 0)" fill="#bcbcbc"/>
    </g>
  </g>
</svg>
