<svg xmlns="http://www.w3.org/2000/svg" width="46.847" height="50.657" viewBox="0 0 46.847 50.657">
  <g id="power-icon6" transform="translate(-4.862 -5.943)">
    <path id="Контур_300" data-name="Контур 300" d="M28.4,44.9A15.5,15.5,0,1,1,39.5,18.5,15.358,15.358,0,0,1,44,29.4,15.6,15.6,0,0,1,28.4,44.9Zm1.2-5.3v1.8c0,.4,0,.8.5.8h.6a13.27,13.27,0,0,0,8.9-6,12.771,12.771,0,0,0,1.8-4.7.82.82,0,0,0,0-.7c-.1-.2-.3-.2-.7-.2H38.8V28.3h1.7c.4,0,.7,0,.8-.2a1.069,1.069,0,0,0,0-.8v-.1A13.136,13.136,0,0,0,36,18.9a13.371,13.371,0,0,0-5.8-2.3H30c-.2,0-.3,0-.4.1a.749.749,0,0,0-.1.5v2.1H27.1V17.4c0-.5,0-.9-.5-.9a.6.6,0,0,0-.4.1h-.1A12.585,12.585,0,0,0,18.5,21a11.763,11.763,0,0,0-2.9,6.4,1.268,1.268,0,0,0,.1.6c.1.2.4.2.5.2h2.1v2.5H16.2c-.2,0-.4,0-.5.2a1.087,1.087,0,0,0-.1.5v.4A12.947,12.947,0,0,0,26.5,42.4h.2c.2,0,.3,0,.4-.2s.2-.4.1-.5v-2h2.3l.1-.1Z" fill="#00acde"/>
    <path id="Контур_301" data-name="Контур 301" d="M27.5,30.2h0c-.1,0-.1-.1-.1-.2V22.7h1.8v4.9a.749.749,0,0,0,.1.5c.1.1.2.1.4.1h1.7v1.9H29.2a8.622,8.622,0,0,1-1.7.1Z" fill="#00acde"/>
    <path id="Контур_302" data-name="Контур 302" d="M37.3,51.2c-.2.1-.5.2-.7.3a23.623,23.623,0,0,1-12.9,1c-.2-.1-.7-.1-1.3-.3l-.9-.3,2.3,4.3-.8.4-2.6-4.9-.4-.8.8-.4,4.9-2.6.4.8-4.2,2.2,1.8.3.3.1c.2,0,.3.1.5.1a22.18,22.18,0,0,0,18.2-4.9,21.422,21.422,0,0,0,7.3-12,21.716,21.716,0,0,0-1.9-15.3,17.611,17.611,0,0,0-1.4-2.3A21.547,21.547,0,0,0,35.8,8.6a21.564,21.564,0,0,0-18.7,1.6,18.822,18.822,0,0,0-4.5,3.5,21.944,21.944,0,0,0-6,11.2,22.04,22.04,0,0,0,1,12.7,3.128,3.128,0,0,0,.5,1c.1.2.2.3.2.5a5.359,5.359,0,0,1-1.1.5l-.5-.9-.1-.2a18.613,18.613,0,0,1-1-3.1,24.012,24.012,0,0,1,.1-12.2,23.644,23.644,0,0,1,7.8-12.1A22.348,22.348,0,0,1,29.5,6,23.052,23.052,0,0,1,46,14.1a27.915,27.915,0,0,1,3.2,4.7c2.7,5.1,3.2,10.8,1.6,17a22.5,22.5,0,0,1-8.3,12.3c-.4.3-.7.5-1.1.8-.2.1-.3.2-.5.3L37.5,51Z" fill="#00acde" opacity="0.5"/>
  </g>
</svg>
