<svg xmlns="http://www.w3.org/2000/svg" width="51.7" height="51.7" viewBox="0 0 51.7 51.7">
  <g id="power-icon8" transform="translate(-2.4 -5)">
    <rect id="Прямоугольник_583" data-name="Прямоугольник 583" width="0.9" height="4.8" transform="translate(4.162 21.378) rotate(-67.5)" fill="#00acde" opacity="0.5"/>
    <rect id="Прямоугольник_584" data-name="Прямоугольник 584" width="4.8" height="0.9" transform="matrix(0.981, -0.195, 0.195, 0.981, 2.853, 35.373)" fill="#00acde" opacity="0.5"/>
    <rect id="Прямоугольник_585" data-name="Прямоугольник 585" width="4.8" height="0.9" transform="translate(4.204 40.259) rotate(-22.5)" fill="#00acde" opacity="0.5"/>
    <rect id="Прямоугольник_586" data-name="Прямоугольник 586" width="0.9" height="4.8" transform="translate(6.524 16.857) rotate(-56.254)" fill="#00acde" opacity="0.5"/>
    <rect id="Прямоугольник_587" data-name="Прямоугольник 587" width="0.9" height="4.8" transform="translate(48.856 35.403) rotate(-78.755)" fill="#00acde" opacity="0.5"/>
    <rect id="Прямоугольник_588" data-name="Прямоугольник 588" width="0.9" height="4.8" transform="matrix(0.195, -0.981, 0.981, 0.195, 2.799, 26.224)" fill="#00acde" opacity="0.5"/>
    <rect id="Прямоугольник_589" data-name="Прямоугольник 589" width="4.8" height="0.9" transform="translate(48.844 26.178) rotate(-11.245)" fill="#00acde" opacity="0.5"/>
    <rect id="Прямоугольник_590" data-name="Прямоугольник 590" width="4.8" height="0.9" transform="translate(47.586 22.239) rotate(-22.5)" fill="#00acde" opacity="0.5"/>
    <rect id="Прямоугольник_591" data-name="Прямоугольник 591" width="4.8" height="0.9" transform="translate(45.553 18.701) rotate(-33.746)" fill="#00acde" opacity="0.5"/>
    <rect id="Прямоугольник_592" data-name="Прямоугольник 592" width="4.8" height="0.9" transform="translate(35.847 11.157) rotate(-67.492)" fill="#00acde" opacity="0.5"/>
    <rect id="Прямоугольник_593" data-name="Прямоугольник 593" width="4.8" height="0.9" transform="translate(31.906 10.051) rotate(-78.732)" fill="#00acde" opacity="0.5"/>
    <rect id="Прямоугольник_594" data-name="Прямоугольник 594" width="0.9" height="4.8" transform="translate(35.91 50.45) rotate(-22.508)" fill="#00acde" opacity="0.5"/>
    <rect id="Прямоугольник_595" data-name="Прямоугольник 595" width="0.9" height="4.8" transform="translate(31.933 51.53) rotate(-11.245)" fill="#00acde" opacity="0.5"/>
    <rect id="Прямоугольник_596" data-name="Прямоугольник 596" width="0.9" height="4.8" transform="translate(47.573 39.3) rotate(-67.5)" fill="#00acde" opacity="0.5"/>
    <rect id="Прямоугольник_597" data-name="Прямоугольник 597" width="0.9" height="4.8" transform="matrix(0.981, -0.195, 0.195, 0.981, 22.735, 5.541)" fill="#00acde" opacity="0.5"/>
    <rect id="Прямоугольник_598" data-name="Прямоугольник 598" width="0.9" height="4.8" transform="matrix(0.556, -0.831, 0.831, 0.556, 45.555, 42.953)" fill="#00acde" opacity="0.5"/>
    <rect id="Прямоугольник_599" data-name="Прямоугольник 599" width="0.9" height="4.8" transform="translate(39.53 48.593) rotate(-33.758)" fill="#00acde" opacity="0.5"/>
    <rect id="Прямоугольник_600" data-name="Прямоугольник 600" width="4.8" height="0.9" transform="translate(39.581 13.002) rotate(-56.262)" fill="#00acde" opacity="0.5"/>
    <rect id="Прямоугольник_601" data-name="Прямоугольник 601" width="4.8" height="0.9" transform="translate(13.486 52.036) rotate(-56.262)" fill="#00acde" opacity="0.5"/>
    <rect id="Прямоугольник_602" data-name="Прямоугольник 602" width="4.8" height="0.9" transform="matrix(0.831, -0.556, 0.556, 0.831, 6.514, 44.703)" fill="#00acde" opacity="0.5"/>
    <rect id="Прямоугольник_603" data-name="Прямоугольник 603" width="4.8" height="0.9" transform="translate(17.962 54.472) rotate(-67.492)" fill="#00acde" opacity="0.5"/>
    <rect id="Прямоугольник_604" data-name="Прямоугольник 604" width="0.9" height="4.8" transform="translate(13.524 9.553) rotate(-33.746)" fill="#00acde" opacity="0.5"/>
    <rect id="Прямоугольник_605" data-name="Прямоугольник 605" width="0.9" height="4.8" transform="matrix(0.924, -0.383, 0.383, 0.924, 17.932, 7.167)" fill="#00acde" opacity="0.5"/>
    <rect id="Прямоугольник_606" data-name="Прямоугольник 606" width="4.8" height="0.9" transform="translate(22.746 56.013) rotate(-78.732)" fill="#00acde" opacity="0.5"/>
    <path id="Контур_312" data-name="Контур 312" d="M10.3,31.8H2.4V29.9h7.9Z" transform="translate(0 0)" fill="#00acde"/>
    <path id="Контур_313" data-name="Контур 313" d="M29.2,5H27.3v7.9h1.9Z" transform="translate(0)" fill="#00acde"/>
    <path id="Контур_314" data-name="Контур 314" d="M27.3,56.7h1.9V48.8H27.3Z" transform="translate(0 0)" fill="#00acde"/>
    <path id="Контур_315" data-name="Контур 315" d="M46.2,29.9v1.9h7.9V29.9Z" transform="translate(0 0)" fill="#00acde"/>
    <rect id="Прямоугольник_607" data-name="Прямоугольник 607" width="7.9" height="1.9" transform="translate(9.308 48.497) rotate(-45)" fill="#00acde"/>
    <path id="Контур_316" data-name="Контур 316" d="M40.3,17.5l1.4,1.3,5.5-5.6-.3-.3v-.1l-.7-.6h0l-.3-.3Z" transform="translate(0 0)" fill="#00acde"/>
    <rect id="Прямоугольник_608" data-name="Прямоугольник 608" width="1.9" height="7.9" transform="translate(40.304 44.244) rotate(-45)" fill="#00acde"/>
    <path id="Контур_317" data-name="Контур 317" d="M10.1,14l-.1.1L14,18v-.1l.9.9,1.3-1.3-5.5-5.6-.4.3h0l-.6.7h0l-.4.3Z" transform="translate(0 0)" fill="#00acde"/>
    <path id="Контур_318" data-name="Контур 318" d="M27.7,31l8,5.8,1.1-1.5L29.6,30l8.2-11.3-1.5-1.1L27.6,29.7A.854.854,0,0,0,27.7,31Z" transform="translate(0 0)" fill="#00acde"/>
  </g>
</svg>
