<svg xmlns="http://www.w3.org/2000/svg" width="44.82" height="56.65" viewBox="0 0 44.82 56.65">
  <g id="power-icon1" transform="translate(-5.59 0.03)">
    <path id="Контур_329" data-name="Контур 329" d="M20.36,15.78a12.631,12.631,0,0,1,11.16-1.85,12.376,12.376,0,0,1,3.69,1.88.455.455,0,0,0,.62-.09.827.827,0,0,0,.07-.13.448.448,0,0,0-.16-.48,13.646,13.646,0,0,0-3.95-2.01,13.377,13.377,0,0,0-11.94,1.98.433.433,0,1,0,.51.7Z" fill="#00acde" opacity="0.5"/>
    <path id="Контур_330" data-name="Контур 330" d="M17.72,13.27a16.966,16.966,0,0,1,20.07.04.584.584,0,0,0,.83-.13.757.757,0,0,0,.09-.18.594.594,0,0,0-.22-.65,17.941,17.941,0,0,0-5.34-2.71,18.138,18.138,0,0,0-8.53-.57,18.4,18.4,0,0,0-7.61,3.24.593.593,0,0,0-.13.83A.614.614,0,0,0,17.72,13.27Z" fill="#00acde" opacity="0.7"/>
    <path id="Контур_331" data-name="Контур 331" d="M14.58,10.67a22.188,22.188,0,0,1,26.25.05.781.781,0,0,0,1.09-.16.9.9,0,0,0,.12-.24.78.78,0,0,0-.28-.85,23.647,23.647,0,0,0-28.08-.06.781.781,0,0,0-.17,1.09A.763.763,0,0,0,14.58,10.67Z" fill="#00acde" opacity="0.8"/>
    <path id="Контур_332" data-name="Контур 332" d="M11.7,7.08a26.963,26.963,0,0,1,31.93.06.957.957,0,0,0,1.33-.2.863.863,0,0,0,.14-.29.961.961,0,0,0-.34-1.04A28.96,28.96,0,0,0,22.69.39,29.184,29.184,0,0,0,10.58,5.54a.965.965,0,0,0-.21,1.33A.948.948,0,0,0,11.7,7.08Z" fill="#00acde"/>
    <g id="Сгруппировать_345" data-name="Сгруппировать 345" opacity="0.5">
      <rect id="Прямоугольник_619" data-name="Прямоугольник 619" width="10.38" height="1.27" transform="translate(14.848 37.309) rotate(-26.744)" fill="#00acde"/>
    </g>
    <g id="Сгруппировать_346" data-name="Сгруппировать 346" opacity="0.5">
      <rect id="Прямоугольник_620" data-name="Прямоугольник 620" width="10.38" height="1.27" transform="translate(30.779 37.313) rotate(-26.744)" fill="#00acde"/>
    </g>
    <g id="Сгруппировать_347" data-name="Сгруппировать 347">
      <rect id="Прямоугольник_621" data-name="Прямоугольник 621" width="6.12" height="5.4" transform="translate(6.21 51.22)" fill="#00acde"/>
    </g>
    <g id="Сгруппировать_348" data-name="Сгруппировать 348">
      <rect id="Прямоугольник_622" data-name="Прямоугольник 622" width="6.12" height="6.12" transform="translate(43.55 50.5)" fill="#00acde"/>
    </g>
    <g id="Сгруппировать_349" data-name="Сгруппировать 349">
      <rect id="Прямоугольник_623" data-name="Прямоугольник 623" width="44.7" height="2.53" transform="translate(5.59 49.3)" fill="#00acde"/>
    </g>
    <g id="Сгруппировать_350" data-name="Сгруппировать 350">
      <rect id="Прямоугольник_624" data-name="Прямоугольник 624" width="44.7" height="2.53" transform="translate(5.59 36.94)" fill="#00acde"/>
    </g>
    <g id="Сгруппировать_351" data-name="Сгруппировать 351">
      <rect id="Прямоугольник_625" data-name="Прямоугольник 625" width="32.31" height="2.53" transform="translate(11.7 21.68)" fill="#00acde"/>
    </g>
    <g id="Сгруппировать_352" data-name="Сгруппировать 352">
      <path id="Контур_333" data-name="Контур 333" d="M50.41,34.77h-3.7V27.52h3.7ZM47.98,33.5h1.17V28.78H47.98Z" fill="#00acde"/>
    </g>
    <g id="Сгруппировать_353" data-name="Сгруппировать 353">
      <path id="Контур_334" data-name="Контур 334" d="M9.29,34.77H5.59V27.52h3.7ZM6.85,33.5H8.02V28.78H6.85Z" fill="#00acde"/>
    </g>
    <g id="Сгруппировать_356" data-name="Сгруппировать 356">
      <g id="Сгруппировать_354" data-name="Сгруппировать 354">
        <rect id="Прямоугольник_626" data-name="Прямоугольник 626" width="2.53" height="6.92" transform="translate(5.59 44.31)" fill="#00acde"/>
      </g>
      <g id="Сгруппировать_355" data-name="Сгруппировать 355">
        <rect id="Прямоугольник_627" data-name="Прямоугольник 627" width="2.53" height="2.9" transform="translate(5.59 37.35)" fill="#00acde"/>
      </g>
    </g>
    <g id="Сгруппировать_359" data-name="Сгруппировать 359">
      <g id="Сгруппировать_357" data-name="Сгруппировать 357">
        <rect id="Прямоугольник_628" data-name="Прямоугольник 628" width="2.53" height="6.92" transform="translate(47.76 44.31)" fill="#00acde"/>
      </g>
      <g id="Сгруппировать_358" data-name="Сгруппировать 358">
        <rect id="Прямоугольник_629" data-name="Прямоугольник 629" width="2.53" height="2.9" transform="translate(47.76 37.35)" fill="#00acde"/>
      </g>
    </g>
    <g id="Сгруппировать_360" data-name="Сгруппировать 360" opacity="0.5">
      <path id="Контур_335" data-name="Контур 335" d="M17.12,44.31H5.59V40.25H17.13v4.06ZM6.85,43.04h9.01V41.52H6.85Z" fill="#00acde"/>
    </g>
    <g id="Сгруппировать_361" data-name="Сгруппировать 361" opacity="0.5">
      <path id="Контур_336" data-name="Контур 336" d="M50.31,44.31H38.77V40.25H50.31ZM40.04,43.04h9.01V41.52H40.04Z" fill="#00acde"/>
    </g>
    <g id="Сгруппировать_362" data-name="Сгруппировать 362">
      <rect id="Прямоугольник_630" data-name="Прямоугольник 630" width="16.53" height="2.53" transform="translate(6.456 37.358) rotate(-71.489)" fill="#00acde"/>
    </g>
    <g id="Сгруппировать_363" data-name="Сгруппировать 363">
      <rect id="Прямоугольник_631" data-name="Прямоугольник 631" width="2.53" height="16.53" transform="translate(41.611 22.48) rotate(-18.511)" fill="#00acde"/>
    </g>
  </g>
</svg>
