<svg xmlns="http://www.w3.org/2000/svg" width="51.6" height="51.47" viewBox="0 0 51.6 51.47">
  <g id="power-icon2" transform="translate(-2.64 -4.94)">
    <g id="Сгруппировать_364" data-name="Сгруппировать 364" opacity="0.5">
      <path id="Контур_340" data-name="Контур 340" d="M25.41,42.28V31.65h-6.2L30.83,19.57V30.2h6.2ZM23.57,29.79h3.7v7.88l5.4-5.61h-3.7V24.18Z" fill="#00acde"/>
    </g>
    <g id="Сгруппировать_365" data-name="Сгруппировать 365">
      <rect id="Прямоугольник_632" data-name="Прямоугольник 632" width="3.71" height="0.93" transform="translate(38.606 27.751) rotate(-45)" fill="#00acde"/>
    </g>
    <g id="Сгруппировать_366" data-name="Сгруппировать 366">
      <rect id="Прямоугольник_633" data-name="Прямоугольник 633" width="0.93" height="3.71" transform="translate(38.565 33.672) rotate(-45)" fill="#00acde"/>
    </g>
    <g id="Сгруппировать_367" data-name="Сгруппировать 367">
      <rect id="Прямоугольник_634" data-name="Прямоугольник 634" width="3.71" height="0.93" transform="translate(40.01 30.27)" fill="#00acde"/>
    </g>
    <g id="Сгруппировать_368" data-name="Сгруппировать 368">
      <rect id="Прямоугольник_635" data-name="Прямоугольник 635" width="0.93" height="3.71" transform="translate(14.405 25.783) rotate(-45)" fill="#00acde"/>
    </g>
    <g id="Сгруппировать_369" data-name="Сгруппировать 369">
      <rect id="Прямоугольник_636" data-name="Прямоугольник 636" width="3.71" height="0.93" transform="translate(14.454 35.635) rotate(-45)" fill="#00acde"/>
    </g>
    <g id="Сгруппировать_370" data-name="Сгруппировать 370">
      <rect id="Прямоугольник_637" data-name="Прямоугольник 637" width="3.71" height="0.93" transform="translate(12.57 30.27)" fill="#00acde"/>
    </g>
    <g id="Сгруппировать_372" data-name="Сгруппировать 372">
      <g id="Сгруппировать_371" data-name="Сгруппировать 371">
        <path id="Контур_341" data-name="Контур 341" d="M18.47,52.29l-.83-.42A23.547,23.547,0,0,1,7.43,41.91l-.02-.03-.02.01-.4-.79L7,41.09l-.02-.03A23.817,23.817,0,0,1,4.6,30.75c0-.31.01-.61.02-.92l.04-.93,1.86.07-.04.93c-.01.28-.02.57-.02.85a21.928,21.928,0,0,0,2.19,9.5l.4.79a21.667,21.667,0,0,0,9.41,9.18l.83.42Z" fill="#00acde"/>
      </g>
    </g>
    <g id="Сгруппировать_374" data-name="Сгруппировать 374">
      <g id="Сгруппировать_373" data-name="Сгруппировать 373">
        <path id="Контур_342" data-name="Контур 342" d="M37.27,10.78l.85-1.65.83.42A23.657,23.657,0,0,1,49.11,19.56l.02.03.02-.01.4.8-.02.01.02.03a23.6,23.6,0,0,1,2.3,10.76c0,.16-.01.32-.02.48l-.04.93-1.85-.08.04-.93c.01-.15.01-.3.01-.45a21.829,21.829,0,0,0-2.12-9.92l-.4-.79a21.722,21.722,0,0,0-9.36-9.23Z" fill="#00acde"/>
      </g>
    </g>
    <g id="Сгруппировать_375" data-name="Сгруппировать 375">
      <path id="Контур_343" data-name="Контур 343" d="M28.82,11.26,27.59,9.87l1.94-1.73-1.54-2.1,1.5-1.1L32.03,8.4Z" fill="#00acde"/>
    </g>
    <g id="Сгруппировать_376" data-name="Сгруппировать 376">
      <path id="Контур_344" data-name="Контур 344" d="M50.6,34.2l-2.61-3.41,1.47-1.13,1.59,2.07,2.21-1.38.98,1.58Z" fill="#00acde"/>
    </g>
    <g id="Сгруппировать_377" data-name="Сгруппировать 377">
      <path id="Контур_345" data-name="Контур 345" d="M26.57,56.41l-1.99-3.8,3.59-2.35,1.02,1.55L27,53.24l1.22,2.31Z" fill="#00acde"/>
    </g>
    <g id="Сгруппировать_378" data-name="Сгруппировать 378">
      <path id="Контур_346" data-name="Контур 346" d="M7.42,31.73,5.84,29.66,3.63,31.04l-.99-1.57,3.64-2.28L8.89,30.6Z" fill="#00acde"/>
    </g>
    <g id="Сгруппировать_380" data-name="Сгруппировать 380">
      <g id="Сгруппировать_379" data-name="Сгруппировать 379">
        <path id="Контур_347" data-name="Контур 347" d="M6.73,20.52l.43-.82A23.571,23.571,0,0,1,17.25,9.61l.03-.02-.01-.02.8-.4.01.02.03-.02A23.882,23.882,0,0,1,28.45,6.92c.31,0,.61.01.92.03L30.3,7l-.1,1.85-.93-.05-.85-.03a21.86,21.86,0,0,0-9.53,2.07l-.8.39a21.722,21.722,0,0,0-9.3,9.29l-.43.82Z" fill="#00acde"/>
      </g>
    </g>
    <g id="Сгруппировать_382" data-name="Сгруппировать 382">
      <g id="Сгруппировать_381" data-name="Сгруппировать 381">
        <path id="Контур_348" data-name="Контур 348" d="M49.67,41.06l-.44.82A23.609,23.609,0,0,1,38.98,51.8l-.03.02.01.02-.8.38-.01-.02-.03.02a23.663,23.663,0,0,1-10.38,2.07c-.31-.01-.61-.02-.92-.04l-.93-.06.13-1.85.93.06c.28.02.57.03.85.04a21.9,21.9,0,0,0,9.56-1.91l.8-.38a21.674,21.674,0,0,0,9.45-9.14l.44-.82Z" fill="#00acde"/>
      </g>
    </g>
  </g>
</svg>
