<svg xmlns="http://www.w3.org/2000/svg" width="50.5" height="51.7" viewBox="0 0 50.5 51.7">
  <g id="power-icon11" transform="translate(-3.7 -5)">
    <g id="Сгруппировать_329" data-name="Сгруппировать 329" opacity="0.5">
      <path id="Контур_325" data-name="Контур 325" d="M53.4,56.7H3.7V52.3H53.4ZM4.6,55.8h48V53.1H4.6v2.7Z" fill="#00acde"/>
    </g>
    <g id="Сгруппировать_330" data-name="Сгруппировать 330">
      <path id="Контур_326" data-name="Контур 326" d="M17,52.7H5.1V5.7H17ZM6.4,51.4h9.3V7H6.4Z" fill="#00acde"/>
    </g>
    <g id="Сгруппировать_331" data-name="Сгруппировать 331">
      <path id="Контур_327" data-name="Контур 327" d="M31.1,52.7H19.3v-41H31.2v41ZM20.5,51.4h9.3V13H20.5Z" fill="#00acde"/>
    </g>
    <g id="Сгруппировать_332" data-name="Сгруппировать 332">
      <path id="Контур_328" data-name="Контур 328" d="M43.2,51.7,29.3,8.5,40.4,5,54.2,48.2ZM30.9,9.4,44,50.1l8.7-2.8L39.6,6.6Z" fill="#00acde"/>
    </g>
    <g id="Сгруппировать_333" data-name="Сгруппировать 333">
      <rect id="Прямоугольник_609" data-name="Прямоугольник 609" width="9.3" height="1.3" transform="translate(6.6 13.3)" fill="#00acde"/>
    </g>
    <g id="Сгруппировать_334" data-name="Сгруппировать 334">
      <rect id="Прямоугольник_610" data-name="Прямоугольник 610" width="1.3" height="25.6" transform="translate(10.4 18.6)" fill="#00acde"/>
    </g>
    <g id="Сгруппировать_335" data-name="Сгруппировать 335">
      <rect id="Прямоугольник_611" data-name="Прямоугольник 611" width="9.3" height="1.3" transform="translate(20.6 16.1)" fill="#00acde"/>
    </g>
    <g id="Сгруппировать_336" data-name="Сгруппировать 336">
      <rect id="Прямоугольник_612" data-name="Прямоугольник 612" width="1.3" height="20.2" transform="translate(24.4 21.4)" fill="#00acde"/>
    </g>
    <g id="Сгруппировать_337" data-name="Сгруппировать 337">
      <rect id="Прямоугольник_613" data-name="Прямоугольник 613" width="9.3" height="1.3" transform="matrix(0.943, -0.333, 0.333, 0.943, 32.854, 14.077)" fill="#00acde"/>
    </g>
    <g id="Сгруппировать_338" data-name="Сгруппировать 338">
      <rect id="Прямоугольник_614" data-name="Прямоугольник 614" width="1.3" height="25.6" transform="translate(37.795 17.832) rotate(-19.439)" fill="#00acde"/>
    </g>
    <g id="Сгруппировать_339" data-name="Сгруппировать 339">
      <rect id="Прямоугольник_615" data-name="Прямоугольник 615" width="1.3" height="0.5" transform="translate(10.4 47.3)" fill="#00acde"/>
    </g>
    <g id="Сгруппировать_340" data-name="Сгруппировать 340">
      <rect id="Прямоугольник_616" data-name="Прямоугольник 616" width="1.3" height="0.3" transform="translate(24.4 44.8)" fill="#00acde"/>
    </g>
    <g id="Сгруппировать_341" data-name="Сгруппировать 341">
      <rect id="Прямоугольник_617" data-name="Прямоугольник 617" width="1.3" height="0.5" transform="translate(47.26 44.742) rotate(-19.444)" fill="#00acde"/>
    </g>
  </g>
</svg>
