<svg xmlns="http://www.w3.org/2000/svg" width="51.226" height="51.7" viewBox="0 0 51.226 51.7">
  <g id="power-icon9" transform="translate(-2.874 -5.1)">
    <g id="Сгруппировать_326" data-name="Сгруппировать 326" opacity="0.5">
      <path id="Контур_319" data-name="Контур 319" d="M39.1,26.7A14.734,14.734,0,0,0,27,32.9H21.5V28.1A14.634,14.634,0,0,1,26,24.8a9.279,9.279,0,0,0,5.3,1.7,8.423,8.423,0,0,0,2.7-.4,9.36,9.36,0,0,0,6-5.8.905.905,0,0,0-.3-1,9.136,9.136,0,0,0-13.9,3.8,16.021,16.021,0,0,0-4.2,2.6V19A9.037,9.037,0,0,0,27.8,6a1.05,1.05,0,0,0-.9-.5,9.321,9.321,0,0,0-6.3,4,10.05,10.05,0,0,0-7.9-4.4.961.961,0,0,0-.9.6,10.316,10.316,0,0,0,.9,9.2,10.142,10.142,0,0,0,6.9,4.5v9.2a16.921,16.921,0,0,0-3.4-2.8A8.992,8.992,0,0,0,11.4,20a9.216,9.216,0,0,0-8.1.2.87.87,0,0,0-.4.9,8.824,8.824,0,0,0,5,6.4,8.9,8.9,0,0,0,7.8-.1,13.775,13.775,0,0,1,3.9,3.8v1.6H3.8a.9.9,0,0,0-.9.9v7.1a.9.9,0,0,0,.9.9H9.1V47H4.7a.9.9,0,0,0-.9.9V55a.9.9,0,0,0,.9.9H34.1a14.259,14.259,0,0,0,5,.9,15.05,15.05,0,0,0,0-30.1Zm-7.2-7.2a7.692,7.692,0,0,1,6.1.8,7.787,7.787,0,0,1-4.6,4.1,7.692,7.692,0,0,1-6.1-.8A7.454,7.454,0,0,1,31.9,19.5ZM8.7,25.9a6.832,6.832,0,0,1-3.8-4.5,7.14,7.14,0,0,1,5.9.1A6.832,6.832,0,0,1,14.6,26,7.14,7.14,0,0,1,8.7,25.9ZM26.4,7.3a7.235,7.235,0,0,1-.3,6.1,7.592,7.592,0,0,1-4.8,3.8,7.235,7.235,0,0,1,.3-6.1A7.592,7.592,0,0,1,26.4,7.3ZM14.2,13.8a8.621,8.621,0,0,1-1-7,8.921,8.921,0,0,1,6.4,4.5,9.418,9.418,0,0,0-.1,6.2A8.685,8.685,0,0,1,14.2,13.8ZM4.7,34.7H7.3v2.6H9.1V34.7h5.3v2.6h1.8V34.7h5.3v2.6h1.8V34.7H26A15.7,15.7,0,0,0,24.3,40H19.8V37.4H18V40H12.7V37.4H10.9V40H4.7Zm6.2,7h2.6v2.6h1.8V41.7h5.3v2.6h1.8V41.7h1.8a15.588,15.588,0,0,0,1,5.3H18.9V44.4H17.1V47H10.9V41.7Zm9.7,12.4V51.5H18.8v2.6H13.5V51.5H11.7v2.6H5.6V48.8H8.2v2.6H10V48.8h5.3v2.6h1.8V48.8h5.3v2.6h1.8V48.8H26a15.935,15.935,0,0,0,4.7,5.3Zm18.5.8A13.2,13.2,0,1,1,52.3,41.7,13.187,13.187,0,0,1,39.1,54.9Z" fill="#00acde"/>
    </g>
    <g id="Сгруппировать_327" data-name="Сгруппировать 327">
      <path id="Контур_320" data-name="Контур 320" d="M43.1,35.7l-.5,2.5a3.2,3.2,0,0,0-2.3-.8,3.043,3.043,0,0,0-2.4,1.1,3.479,3.479,0,0,0-.7,1.5h5l-.3,1.4H37v1.2h4.6L41.3,44H37.1a4.2,4.2,0,0,0,.7,1.5,3.043,3.043,0,0,0,2.4,1.1A3.763,3.763,0,0,0,43,45.5v2.8a6.088,6.088,0,0,1-2.8.6,5.881,5.881,0,0,1-4.4-1.8A5.666,5.666,0,0,1,34.3,44H33l.3-1.4h.9V41.4H33l.3-1.4h1.1a7.077,7.077,0,0,1,1.5-3,5.951,5.951,0,0,1,4.5-1.8A7.635,7.635,0,0,1,43.1,35.7Z" fill="#00acde"/>
    </g>
    <g id="Сгруппировать_328" data-name="Сгруппировать 328">
      <path id="Контур_321" data-name="Контур 321" d="M39.1,53A11.3,11.3,0,1,1,50.4,41.7,11.353,11.353,0,0,1,39.1,53Zm0-21.7A10.4,10.4,0,1,0,49.5,41.7,10.392,10.392,0,0,0,39.1,31.3Z" fill="#00acde"/>
    </g>
  </g>
</svg>
