<svg xmlns="http://www.w3.org/2000/svg" width="52.292" height="47.956" viewBox="0 0 52.292 47.956">
  <g id="power-icon3" transform="translate(-2.508 -8.8)">
    <path id="Контур_337" data-name="Контур 337" d="M54.8,41.1c-.64,1.78-1.28,3.55-1.91,5.33-.77,2.17-1.52,4.34-2.28,6.5-.34.98-.5,1.08-1.52,1.08H33.36c-.73,0-.73,0-.74.73,0,.34.01.68-.02,1.02a.95.95,0,0,1-.75.97.97.97,0,0,1-1.09-.56q-1.5-2.475-2.99-4.93c-.72-1.19-1.44-2.39-2.18-3.58a1.146,1.146,0,0,1-.03-1.29c1.71-2.87,3.4-5.74,5.11-8.61a.983.983,0,0,1,1.1-.56,1,1,0,0,1,.76,1.02c.02.37.01.75.01,1.12,0,.21.05.38.31.38h4.43c-.36-.56-.66-1.02-.96-1.49a1.035,1.035,0,0,1,.37-1.67q5.01-3.06,10.04-6.09c.71-.43,1.15-.3,1.67.45q3.2,4.68,6.4,9.36ZM30.86,52.53a.317.317,0,0,0,.12-.08,1.639,1.639,0,0,1,1.25-.33c5.31,0,10.62-.01,15.93.01a.88.88,0,0,0,.99-.69c1.04-3.04,2.11-6.07,3.18-9.11.25-.72.25-.72-.5-.72h-.31q-9.72,0-19.45.02A1.552,1.552,0,0,1,31,41.39c-.19-.16-.27,0-.34.13-1.02,1.73-2.05,3.46-3.07,5.18a.5.5,0,0,0-.01.57c1.03,1.69,2.05,3.37,3.07,5.06C30.69,52.42,30.73,52.52,30.86,52.53ZM45.75,39.74h0c1.94,0,3.88,0,5.82-.01.15,0,.34.08.43-.07s-.09-.27-.17-.39c-1.34-1.97-2.69-3.93-4.03-5.9-.64-.94-.64-.94-1.61-.35-2.47,1.5-4.94,3.01-7.43,4.49-.4.24-.45.42-.16.77a5.314,5.314,0,0,1,.58.9.979.979,0,0,0,1.02.57C42.04,39.72,43.89,39.74,45.75,39.74Z" fill="#00acde" opacity="0.5"/>
    <path id="Контур_338" data-name="Контур 338" d="M16.9,54.19c-1.75,0-3.51-.01-5.26.01a1.607,1.607,0,0,1-1.55-.84q-3.63-5.9-7.32-11.74a1.35,1.35,0,0,1,0-1.6c2.36-3.79,4.69-7.58,7.04-11.38.37-.6.38-.6-.23-.94-.31-.18-.63-.35-.93-.54a.9.9,0,0,1-.44-1.01.86.86,0,0,1,.77-.71,4.067,4.067,0,0,1,.61-.06c2.62-.05,5.24-.09,7.86-.14.56-.01,1.12-.05,1.68-.07a1.246,1.246,0,0,1,1.25.7c1.58,2.84,3.18,5.67,4.77,8.51.05.09.1.18.14.27a.951.951,0,0,1-.13,1.14.94.94,0,0,1-1.18.13c-.35-.17-.69-.38-1.02-.58-.24-.15-.39-.11-.53.14q-1.155,2.025-2.32,4.03c-.19.33-.05.36.24.36.7-.01,1.4-.01,2.09,0,.82.01,1.21.37,1.21,1.19.01,3.98.01,7.97,0,11.95,0,.82-.4,1.16-1.34,1.17-1.8.01-3.61,0-5.41,0C16.9,54.18,16.9,54.19,16.9,54.19ZM16.52,27.1c-1.24-.02-2.48.11-3.72.12-.16,0-.44-.08-.4.23a1.772,1.772,0,0,1-.41,1.22q-3.6,5.82-7.2,11.63a.75.75,0,0,0-.04.93q3.015,4.8,6.01,9.61c.33.53.34.53.66-.03q4.935-8.58,9.87-17.17a1.257,1.257,0,0,1,.56-.64c.29-.11.23-.26.12-.47-.95-1.69-1.91-3.38-2.85-5.08a.638.638,0,0,0-.66-.37C17.81,27.11,17.17,27.1,16.52,27.1Zm5.25,19.92c0-1.58-.01-3.17.01-4.75,0-.4-.12-.55-.52-.53-.65.03-1.29.03-1.94,0a.746.746,0,0,0-.76.45q-2.76,4.83-5.55,9.65c-.22.38-.19.47.26.47q3.975-.06,7.97-.06c.44,0,.55-.17.54-.58C21.76,50.12,21.77,48.57,21.77,47.02Z" fill="#00acde" opacity="0.75"/>
    <path id="Контур_339" data-name="Контур 339" d="M27.98,8.81c1.92,0,3.85.01,5.77-.01a1.65,1.65,0,0,1,1.5.78c2.74,3.9,5.52,7.77,8.26,11.67.23.33.42.43.77.18a10.282,10.282,0,0,1,.97-.57,1.054,1.054,0,0,1,1.32.02c.35.32.39.75.08,1.31q-1.56,2.865-3.14,5.73c-.52.96-1.06,1.9-1.56,2.87a1.251,1.251,0,0,1-1.26.76c-3.3-.03-6.6-.02-9.9-.11a.986.986,0,0,1-1.06-.7c-.14-.44.05-.82.56-1.14a1.618,1.618,0,0,1,.18-.1c1.1-.65,1.1-.65.44-1.77-.61-1.04-1.21-2.09-1.81-3.14-.34-.6-.36-.6-.76-.07s-.79,1.07-1.2,1.59a1.024,1.024,0,0,1-1.66.26Q20.83,23,16.19,19.61c-.74-.54-.81-.93-.37-1.69,1.6-2.75,3.22-5.49,4.8-8.25a1.529,1.529,0,0,1,1.49-.85C24.07,8.82,26.03,8.81,27.98,8.81Zm.61,1.89H24.05c-.74,0-.75.03-.38.69a.913.913,0,0,0,.08.13q4.875,8.445,9.74,16.89a1.438,1.438,0,0,1,.29.7c-.01.38.2.44.51.45,1.87.11,3.74.02,5.61.08a.762.762,0,0,0,.79-.49c.84-1.58,1.7-3.14,2.57-4.71.18-.33.34-.58-.17-.75-.24-.08-.37-.34-.52-.55Q38.3,17.125,34.03,11.11a.925.925,0,0,0-.84-.44C31.66,10.71,30.13,10.7,28.59,10.7Zm-.9,11.46c-.08-.16-.16-.31-.24-.46-.73-1.27-1.46-2.53-2.19-3.8-1.12-1.94-2.25-3.89-3.37-5.83-.14-.24-.23-.44-.46-.05-1.16,2.02-2.34,4.03-3.52,6.04a.35.35,0,0,0,.12.55c2.58,1.86,5.15,3.74,7.72,5.61.21.15.34.15.5-.07.42-.58.85-1.15,1.28-1.72C27.59,22.35,27.63,22.26,27.69,22.16Z" fill="#00acde"/>
  </g>
</svg>
