<svg xmlns="http://www.w3.org/2000/svg" width="54.42" height="51.03" viewBox="0 0 54.42 51.03">
  <g id="power-icon4" transform="translate(-1.11 -5.67)">
    <g id="Сгруппировать_386" data-name="Сгруппировать 386">
      <path id="Контур_351" data-name="Контур 351" d="M24.36,56.7V32.1H14.4L33.38,5.67v24.6h9.97ZM19.84,29.31h7.32V48.03L37.9,33.06H30.58V14.34Z" fill="#00acde"/>
    </g>
    <g id="Сгруппировать_387" data-name="Сгруппировать 387" opacity="0.5">
      <path id="Контур_352" data-name="Контур 352" d="M5.56,44.8a4.219,4.219,0,0,1-4.39-3.26.784.784,0,0,0-.05-.14l-.01-.03V22.58A4.494,4.494,0,0,1,2.29,20.4a4.105,4.105,0,0,1,2.97-1.24c1.8,0,3.1-.01,5.37-.01h7.05a1.322,1.322,0,0,1,.29.02.727.727,0,0,1,.01,1.44,1.829,1.829,0,0,1-.33.02h-.16c-.99,0-2.12,0-3.32.01-1.46,0-2.4.01-3.93.01-2.45,0-3.34-.01-4.77-.03H5.43a2.91,2.91,0,0,0-2.07.84,2.858,2.858,0,0,0-.82,2.08c.04,5.36.04,10.87,0,16.85a2.937,2.937,0,0,0,.82,2.11,2.857,2.857,0,0,0,2.09.82c.85,0,2.13-.01,4.63-.01h9.47a.7.7,0,0,1,.7.66.726.726,0,0,1-.54.76,1.8,1.8,0,0,1-.51.05H10.09C7.62,44.8,6.37,44.8,5.56,44.8Z" fill="#00acde"/>
    </g>
    <g id="Сгруппировать_388" data-name="Сгруппировать 388" opacity="0.5">
      <path id="Контур_353" data-name="Контур 353" d="M44.56,44.8H37.74a1.684,1.684,0,0,1-.4-.05.721.721,0,0,1-.56-.77.7.7,0,0,1,.71-.65c.34-.01.68-.01,1.01-.01h9.21a2.74,2.74,0,0,0,2.91-2.55,3.774,3.774,0,0,0,.02-.47V38.9a.677.677,0,0,1,.75-.74h1.5A1.036,1.036,0,0,0,54.05,37V26.98c0-.78-.37-1.14-1.16-1.15H51.48a.755.755,0,0,1-.84-.84c-.01-.22,0-.44,0-.66a8.059,8.059,0,0,0-.06-1.38,2.68,2.68,0,0,0-2.66-2.29c-.67,0-1.82-.01-3.04-.01H38.49a1.21,1.21,0,0,1-.19-.01.74.74,0,1,1,0-1.48h9.5a4.224,4.224,0,0,1,4.32,4.22v.22c0,.65.07.73.7.73h.2a2.471,2.471,0,0,1,2.51,2.52v10.1a2.5,2.5,0,0,1-2.6,2.66c-.74.02-.81.09-.82.84a4.241,4.241,0,0,1-4.31,4.33C46.73,44.8,45.65,44.8,44.56,44.8Z" fill="#00acde"/>
    </g>
  </g>
</svg>
