<svg xmlns="http://www.w3.org/2000/svg" width="43.501" height="51.04" viewBox="0 0 43.501 51.04">
  <g id="power-icon7" transform="translate(-6.62 -5.67)">
    <path id="Контур_355" data-name="Контур 355" d="M41.44,26.34a1.355,1.355,0,0,1-.48,1.09q-6.555,6.555-13.13,13.12a1.362,1.362,0,0,1-2.16.03q-4.245-4.215-8.46-8.46a1.384,1.384,0,0,1,.04-2.17q2.04-2.07,4.11-4.12a1.4,1.4,0,0,1,2.21-.01c.87.84,1.71,1.7,2.57,2.56.61.61.61.61,1.2.02q3.54-3.54,7.09-7.09c.97-.97,1.6-.97,2.58.01,1.3,1.29,2.59,2.59,3.89,3.89A1.477,1.477,0,0,1,41.44,26.34ZM26.71,37.67a.586.586,0,0,0,.41-.24q5.355-5.34,10.7-10.69c.32-.32.25-.52-.04-.79-.52-.49-1.04-.98-1.5-1.51-.4-.46-.67-.48-1.11-.02-2.38,2.43-4.8,4.83-7.21,7.23a1.458,1.458,0,0,1-2.44,0c-.9-.89-1.81-1.79-2.69-2.7-.27-.28-.46-.29-.73,0-.54.58-1.11,1.15-1.69,1.69-.3.28-.32.49-.02.79,2.01,1.99,4,3.99,6,5.98A2.287,2.287,0,0,0,26.71,37.67Z" fill="#00acde"/>
    <path id="Контур_356" data-name="Контур 356" d="M27.89,56.7a28.014,28.014,0,0,1-6-2.04A26.489,26.489,0,0,1,6.96,34.86a21.327,21.327,0,0,1-.34-3.96q.015-6.15,0-12.3V13.18c0-.73.1-.87.8-1.09l3.65-1.14C16.45,9.28,22,7.54,27.45,5.82a2.866,2.866,0,0,1,1.83,0c5.21,1.64,10.51,3.3,15.63,4.91l4.25,1.33c.88.27.94.36.94,1.29,0,1.8.01,3.61.01,5.41.01,4.03.03,8.2-.03,12.3a25.854,25.854,0,0,1-7.09,17.63,26.4,26.4,0,0,1-13.95,7.95,1.519,1.519,0,0,0-.2.06l-.03.01h-.92Zm.47-49.49a2,2,0,0,0-.58.09c-5.71,1.8-12.35,3.89-18.87,5.91a1.038,1.038,0,0,0-.84,1.14c.01,2.44.01,4.89.01,7.33,0,2.84,0,5.78.01,8.67a23.077,23.077,0,0,0,.69,5.98c2.61,9.74,8.88,16.04,18.61,18.7a3.785,3.785,0,0,0,.97.16h0a1.913,1.913,0,0,0,.48-.06,24.992,24.992,0,0,0,17.94-15.2,24.588,24.588,0,0,0,1.84-9.62c.01-1.81.01-3.64.01-5.42v-4.4c0-2.06,0-4.19.01-6.29a.916.916,0,0,0-.72-.98c-5.73-1.78-11.94-3.73-18.97-5.94A2.969,2.969,0,0,0,28.36,7.21Z" fill="#00acde" opacity="0.5"/>
    <path id="Контур_357" data-name="Контур 357" d="M27.97,52.41a24.089,24.089,0,0,1-4.99-1.69A22.047,22.047,0,0,1,10.56,34.25a17.855,17.855,0,0,1-.28-3.29c.01-3.41,0-6.82,0-10.23v-4.5c0-.61.09-.72.66-.9l3.04-.95c4.46-1.4,9.08-2.84,13.61-4.28a2.694,2.694,0,0,1,.76-.13,2.5,2.5,0,0,1,.75.12c4.33,1.37,8.74,2.75,13,4.08l3.53,1.11c.73.23.78.3.78,1.07,0,1.5,0,3,.01,4.5.01,3.36.02,6.82-.03,10.23A21.524,21.524,0,0,1,40.5,45.74a21.953,21.953,0,0,1-11.6,6.61.749.749,0,0,0-.16.05l-.02.01h-.75Zm.39-41.17a1.609,1.609,0,0,0-.48.08c-4.75,1.5-10.27,3.23-15.69,4.92a.863.863,0,0,0-.7.95c.01,2.03.01,4.07.01,6.1,0,2.36,0,4.81.01,7.21a19.359,19.359,0,0,0,.57,4.97c2.17,8.1,7.38,13.34,15.48,15.55a2.984,2.984,0,0,0,.81.14h0a1.752,1.752,0,0,0,.4-.05A21.014,21.014,0,0,0,45.22,30.47c.01-1.5.01-3.03.01-4.51V22.31c0-1.71,0-3.49.01-5.23a.747.747,0,0,0-.6-.81c-4.77-1.48-9.93-3.1-15.78-4.94A1.557,1.557,0,0,0,28.36,11.24Z" fill="#00acde" opacity="0.5"/>
  </g>
</svg>
