<svg xmlns="http://www.w3.org/2000/svg" width="51.678" height="51.7" viewBox="0 0 51.678 51.7">
  <g id="power-icon10" transform="translate(-2.522 -5)">
    <path id="Контур_322" data-name="Контур 322" d="M31.7,46h-.1a1.593,1.593,0,0,1-1.5-1.2L24,20.2l-3.9,8.5a1.551,1.551,0,0,1-1.5.9H4.2a1.6,1.6,0,0,1,0-3.2H17.6L23,14.6a1.6,1.6,0,0,1,3,.3l6,24.2,4.9-12.3a1.539,1.539,0,0,1,1.5-1H52.6a1.6,1.6,0,0,1,0,3.2h-13L33.2,45A1.638,1.638,0,0,1,31.7,46Z" fill="#00acde"/>
    <path id="Контур_323" data-name="Контур 323" d="M31.7,45.2h0a.871.871,0,0,1-.8-.6L24.3,17.7,19.4,28.4a.752.752,0,0,1-.7.5H4.2a.8.8,0,1,1,0-1.6H18.1L23.8,15a.792.792,0,0,1,.8-.5.858.858,0,0,1,.7.6l6.6,26.7,5.9-14.7a.752.752,0,0,1,.7-.5H52.7a.8.8,0,0,1,0,1.6H39L32.4,44.7a.752.752,0,0,1-.7.5" fill="#00acde"/>
    <path id="Контур_324" data-name="Контур 324" d="M28.4,56.7a.367.367,0,0,1-.3-.1A39.732,39.732,0,0,1,8.3,39.7C5.7,35.4-2,20.4,6.2,10.6A16.071,16.071,0,0,1,18.2,5,15.527,15.527,0,0,1,28.3,8.7a15.733,15.733,0,0,1,22,1.7c7.3,8.4,2.4,21.1,0,26.2A41.021,41.021,0,0,1,28.8,56.7h-.4M18.3,6.6A14.117,14.117,0,0,0,7.5,11.7c-7.6,9-.2,23.2,2.2,27.4A38.666,38.666,0,0,0,28.5,55.2,39.826,39.826,0,0,0,48.9,36c2.3-4.8,7-16.8.3-24.5a14.316,14.316,0,0,0-20.3-1.1.785.785,0,0,1-1.1,0,13.639,13.639,0,0,0-9.5-3.8" fill="#00acde" opacity="0.5"/>
  </g>
</svg>
