<svg id="Сгруппировать_117" data-name="Сгруппировать 117" xmlns="http://www.w3.org/2000/svg" xmlns:xlink="http://www.w3.org/1999/xlink" width="31.452" height="31.452" viewBox="0 0 31.452 31.452">
  <defs>
    <clipPath id="clip-path">
      <rect id="Прямоугольник_510" data-name="Прямоугольник 510" width="31.452" height="31.452" fill="none"/>
    </clipPath>
  </defs>
  <rect id="Прямоугольник_509" data-name="Прямоугольник 509" width="31.452" height="31.452" transform="translate(0 0)" fill="#00acde"/>
  <g id="Сгруппировать_113" data-name="Сгруппировать 113" transform="translate(0 0)">
    <g id="Сгруппировать_112" data-name="Сгруппировать 112" clip-path="url(#clip-path)">
      <path id="Контур_85" data-name="Контур 85" d="M10.122,23.442a13.872,13.872,0,0,1-7.5-2.2.591.591,0,0,1,.388-1.084,8.859,8.859,0,0,0,5.3-1.027,5.276,5.276,0,0,1-3.373-3.4.588.588,0,0,1,.122-.571.558.558,0,0,1,.212-.152,5.26,5.26,0,0,1-2-4.2.589.589,0,0,1,.825-.527A5.281,5.281,0,0,1,4.019,4.85a.592.592,0,0,1,.969-.076,12.762,12.762,0,0,0,8.5,4.622,5.278,5.278,0,0,1,8.87-4.27,8.831,8.831,0,0,0,2.487-1,.59.59,0,0,1,.863.689,5.233,5.233,0,0,1-.641,1.325c.158-.059.313-.123.467-.192a.591.591,0,0,1,.733.867A9.97,9.97,0,0,1,24.039,9.2,14.44,14.44,0,0,1,20.1,19.295a13.458,13.458,0,0,1-9.977,4.147m-4.8-2.121a12.7,12.7,0,0,0,4.8.939,12.265,12.265,0,0,0,9.122-3.783,13.208,13.208,0,0,0,3.6-9.538.588.588,0,0,1,.245-.507,8.791,8.791,0,0,0,.918-.76c-.282.059-.567.106-.855.139a.591.591,0,0,1-.374-1.094,4.124,4.124,0,0,0,.931-.761,10.105,10.105,0,0,1-1.429.394.593.593,0,0,1-.546-.176,4.117,4.117,0,0,0-2.987-1.293,4.1,4.1,0,0,0-3.989,5.027.594.594,0,0,1-.122.513.588.588,0,0,1-.484.212A13.925,13.925,0,0,1,4.689,6.227a4.107,4.107,0,0,0,1.619,4.685.59.59,0,0,1-.347,1.081,5.212,5.212,0,0,1-1.426-.244,4.144,4.144,0,0,0,3.2,3.142.591.591,0,0,1,.04,1.149,5.255,5.255,0,0,1-1.323.185,4.106,4.106,0,0,0,3.439,1.99.59.59,0,0,1,.353,1.056,10.077,10.077,0,0,1-4.915,2.05" transform="translate(1.369 2.156)" fill="#fff"/>
    </g>
  </g>
</svg>
