<svg id="team-icon2" xmlns="http://www.w3.org/2000/svg" xmlns:xlink="http://www.w3.org/1999/xlink" width="31.452" height="31.452" viewBox="0 0 31.452 31.452">
  <defs>
    <clipPath id="clip-path">
      <rect id="Прямоугольник_508" data-name="Прямоугольник 508" width="31.452" height="31.452" fill="none"/>
    </clipPath>
  </defs>
  <rect id="Прямоугольник_507" data-name="Прямоугольник 507" width="31.452" height="31.452" transform="translate(0 0)" fill="#00acde"/>
  <g id="Сгруппировать_110" data-name="Сгруппировать 110" transform="translate(0 0)">
    <g id="Сгруппировать_109" data-name="Сгруппировать 109" clip-path="url(#clip-path)">
      <path id="Контур_82" data-name="Контур 82" d="M19.288,8.483A4.827,4.827,0,0,0,15.74,7.131a4.739,4.739,0,0,0-3.09,1.087V8.049A.55.55,0,0,0,12.1,7.5H8.517a.55.55,0,0,0-.549.549V20.123a.549.549,0,0,0,.549.549H12.1a.549.549,0,0,0,.549-.549V13.785c0-1.432.582-2.161,1.728-2.161.407,0,1.486,0,1.486,2.161v6.338a.549.549,0,0,0,.549.549h3.718a.549.549,0,0,0,.549-.549V12.478a5.574,5.574,0,0,0-1.393-4m.294,11.091H16.962V13.785c0-2.835-1.618-3.257-2.583-3.257-1.77,0-2.825,1.217-2.825,3.257v5.788H9.066V8.6h2.487V9.676a.55.55,0,0,0,1.03.263A3.639,3.639,0,0,1,15.74,8.229c2.442,0,3.843,1.548,3.843,4.248Z" transform="translate(4.644 4.156)" fill="#fff"/>
      <path id="Контур_83" data-name="Контур 83" d="M8.384,7.364H4.647a.55.55,0,0,0-.549.549V19.987a.548.548,0,0,0,.549.548H8.384a.549.549,0,0,0,.549-.548V7.913a.551.551,0,0,0-.549-.549M7.835,19.438H5.2V8.462H7.835Z" transform="translate(2.388 4.292)" fill="#fff"/>
      <path id="Контур_84" data-name="Контур 84" d="M6.63,3.551A2.776,2.776,0,1,0,9.389,6.329,2.771,2.771,0,0,0,6.63,3.551m0,4.454A1.678,1.678,0,1,1,8.29,6.329,1.671,1.671,0,0,1,6.63,8.005" transform="translate(2.256 2.07)" fill="#fff"/>
    </g>
  </g>
</svg>
