<svg id="team-icon1" xmlns="http://www.w3.org/2000/svg" xmlns:xlink="http://www.w3.org/1999/xlink" width="32.168" height="31.453" viewBox="0 0 32.168 31.453">
  <defs>
    <clipPath id="clip-path">
      <rect id="Прямоугольник_506" data-name="Прямоугольник 506" width="32.168" height="31.452" fill="none"/>
    </clipPath>
  </defs>
  <rect id="Прямоугольник_505" data-name="Прямоугольник 505" width="32.168" height="31.452" transform="translate(0 0)" fill="#00acde"/>
  <g id="Сгруппировать_107" data-name="Сгруппировать 107" transform="translate(0 0)">
    <g id="Сгруппировать_106" data-name="Сгруппировать 106" clip-path="url(#clip-path)">
      <path id="Контур_81" data-name="Контур 81" d="M26.253,5.284H3.189a.577.577,0,0,0-.576.578V20.854a.578.578,0,0,0,.576.578H26.253a.578.578,0,0,0,.576-.578V5.862a.577.577,0,0,0-.576-.578M3.765,7.115l7.12,5.708-7.12,6.559Zm10.956,7.306L4.764,6.438H24.679ZM11.8,13.553l2.564,2.056,0,0,.017.013.032.022.019.011.036.019.014.008.054.022h0a.32.32,0,0,0,.052.014l.014,0a.464.464,0,0,0,.046.008l.013,0,.057,0h0c.019,0,.038,0,.057,0l.014,0,.044-.008.014,0a.338.338,0,0,0,.054-.014h0l.055-.022.014-.008.036-.019.019-.011.03-.022.017-.013,0,0,2.566-2.056,7.3,6.725H4.495Zm6.763-.73,7.118-5.708V19.368Z" transform="translate(1.523 3.08)" fill="#fff"/>
    </g>
  </g>
</svg>
