<svg width="16" height="16" viewBox="0 0 16 16" fill="none" xmlns="http://www.w3.org/2000/svg">
<path d="M0.106995 15.25H15.357V0H0.106995V15.25ZM11.2 6.021C11.2 6.095 11.2 6.17 11.2 6.245C11.1867 6.59637 11.1344 6.94518 11.044 7.285C10.8053 8.39734 10.1844 9.39088 9.28924 10.093C8.39406 10.795 7.28117 11.1613 6.144 11.128C5.14292 11.0512 4.18111 10.7058 3.36 10.128C4.26823 10.0912 5.1607 9.87858 5.988 9.502C5.62456 9.48094 5.27632 9.34896 4.99023 9.12384C4.70413 8.89872 4.49395 8.59129 4.388 8.243C4.49607 8.26767 4.60622 8.28207 4.717 8.286C4.87362 8.29126 5.03027 8.27613 5.183 8.241C4.80568 8.12147 4.47358 7.89012 4.23071 7.5776C3.98784 7.26508 3.84566 6.88615 3.823 6.491C3.823 6.484 3.823 6.476 3.823 6.469C4.06312 6.61131 4.33346 6.69491 4.612 6.713C4.26713 6.43456 4.02286 6.05091 3.9165 5.62061C3.81015 5.19032 3.84755 4.73704 4.02299 4.33C4.4727 4.89231 5.03116 5.35818 5.665 5.69976C6.29884 6.04134 6.99505 6.25161 7.712 6.318C7.66147 6.05984 7.67034 5.79356 7.73795 5.53934C7.80555 5.28511 7.93011 5.0496 8.1022 4.85063C8.27428 4.65166 8.48938 4.49446 8.73121 4.39092C8.97304 4.28738 9.23525 4.24021 9.498 4.253C9.73775 4.26067 9.97343 4.31701 10.1907 4.41861C10.408 4.52021 10.6024 4.66494 10.762 4.844C11.1304 4.79382 11.4865 4.67691 11.813 4.499C11.6965 4.88008 11.4361 5.20076 11.087 5.393C11.4365 5.36473 11.7799 5.28486 12.106 5.156C11.8573 5.49616 11.5498 5.7891 11.198 6.021" fill="#00ACDE"/>
</svg>
